<svg width="111" height="40" viewBox="0 0 111 40" fill="none" xmlns="http://www.w3.org/2000/svg">
    <rect width="111" height="40" rx="4" fill="white"/>
    <path d="M28.3072 20.6238C28.3072 18.1242 30.3076 16.8743 30.4614 16.7962C29.3074 15.0777 27.4609 14.8434 26.8454 14.8434C25.3067 14.6872 23.8449 15.7808 23.0756 15.7808C22.3062 15.7808 21.0752 14.8434 19.8442 14.9215C18.2286 14.9215 16.6898 15.937 15.8436 17.4211C14.074 20.4675 15.3819 24.9981 17.0745 27.4977C17.9208 28.7475 18.921 30.0755 20.152 29.9974C21.383 29.9192 21.8446 29.2162 23.3833 29.2162C24.8451 29.2162 25.3067 29.9974 26.6146 29.9974C27.9225 29.9974 28.7688 28.7475 29.6151 27.5758C30.6153 26.1698 31 24.8419 31 24.7638C30.9231 24.6075 28.3842 23.5921 28.3072 20.6238Z" fill="#1D1E2C"/>
    <path d="M25.8442 13.2026C26.5366 12.3434 26.9982 11.1717 26.8444 10C25.8442 10.0781 24.6901 10.703 23.9208 11.4842C23.3053 12.1872 22.7667 13.437 22.9206 14.5306C24.0746 14.6868 25.1518 14.0619 25.8442 13.2026Z" fill="#1D1E2C"/>
    <path d="M48.7195 27.225H47.1342L46.3071 24.52H43.3434L42.5163 27.225H41L43.9637 18H45.7558L48.7195 27.225ZM46.1004 23.4102L45.3422 20.9825C45.2733 20.7051 45.1354 20.1502 44.8597 19.2485C44.7908 19.6647 44.653 20.2196 44.4462 20.9825L43.6191 23.4102H46.1004Z" fill="#575A65"/>
    <path d="M56.3688 23.8264C56.3688 24.9362 56.0931 25.8379 55.4728 26.5315C54.9214 27.0864 54.2321 27.4332 53.474 27.4332C52.5779 27.4332 51.9576 27.0864 51.613 26.4622V29.9996H50.1656V22.786C50.1656 22.0924 50.1656 21.3294 50.0967 20.5665H51.4062L51.4752 21.6069C51.9576 20.8439 52.7158 20.4277 53.6807 20.4277C54.4389 20.4277 55.1281 20.7052 55.6106 21.3294C56.0931 21.9537 56.3688 22.786 56.3688 23.8264ZM54.8524 23.8958C54.8524 23.2715 54.7146 22.7167 54.4389 22.3005C54.0943 21.8843 53.6807 21.6762 53.1293 21.6762C52.7847 21.6762 52.4401 21.815 52.1644 22.023C51.8887 22.3005 51.6819 22.5779 51.613 22.9941C51.5441 23.2022 51.5441 23.3409 51.5441 23.4103V24.52C51.5441 25.0056 51.6819 25.4217 51.9576 25.7686C52.2333 26.1154 52.6469 26.2541 53.1293 26.2541C53.6807 26.2541 54.0943 26.046 54.4389 25.6298C54.7146 25.1443 54.8524 24.5894 54.8524 23.8958Z" fill="#575A65"/>
    <path d="M63.9513 23.8264C63.9513 24.9362 63.6756 25.8379 63.0553 26.5315C62.5039 27.0864 61.8146 27.4332 61.0565 27.4332C60.1605 27.4332 59.5401 27.0864 59.1955 26.4622V29.9996H57.7481V22.786C57.7481 22.0924 57.7481 21.3294 57.6792 20.5665H58.9888L59.0577 21.6069C59.5401 20.8439 60.2983 20.4277 61.2632 20.4277C62.0214 20.4277 62.7106 20.7052 63.1931 21.3294C63.6756 21.9537 63.9513 22.786 63.9513 23.8264ZM62.435 23.8958C62.435 23.2715 62.2971 22.7167 62.0214 22.3005C61.6768 21.8843 61.2632 21.6762 60.7119 21.6762C60.3672 21.6762 60.0226 21.815 59.7469 22.023C59.4712 22.3005 59.2645 22.5779 59.1955 22.9941C59.1266 23.2022 59.1266 23.3409 59.1266 23.4103V24.52C59.1266 25.0056 59.2645 25.4217 59.5401 25.7686C59.8158 26.1154 60.2294 26.2541 60.7119 26.2541C61.2632 26.2541 61.6768 26.046 62.0214 25.6298C62.2971 25.1443 62.435 24.5894 62.435 23.8958Z" fill="#575A65"/>
    <path d="M72.4267 24.6587C72.4267 25.4217 72.151 26.1153 71.5996 26.6008C70.9793 27.1557 70.1522 27.4331 69.1183 27.4331C68.1534 27.4331 67.3263 27.225 66.7749 26.8782L67.1195 25.6297C67.7398 26.0459 68.498 26.254 69.2562 26.254C69.8076 26.254 70.2211 26.1153 70.5657 25.9072C70.8414 25.6297 71.0482 25.3523 71.0482 24.8668C71.0482 24.52 70.9103 24.1732 70.6346 23.8957C70.3589 23.6183 69.9454 23.4102 69.394 23.2021C67.8088 22.5778 66.9817 21.7455 66.9817 20.5664C66.9817 19.8034 67.2574 19.1791 67.8088 18.6936C68.3602 18.2081 69.1183 18 70.0832 18C70.9103 18 71.5996 18.1387 72.151 18.4162L71.7374 19.5259C71.186 19.2485 70.6346 19.1098 70.0143 19.1098C69.4629 19.1098 69.1183 19.2485 68.7737 19.5259C68.498 19.734 68.4291 20.0115 68.4291 20.3583C68.4291 20.7051 68.5669 21.0519 68.8426 21.26C69.1183 21.4681 69.5319 21.7455 70.1522 21.9536C70.9103 22.3004 71.5307 22.6472 71.8753 23.0634C72.2888 23.4795 72.4267 24.0344 72.4267 24.6587Z" fill="#575A65"/>
    <path d="M77.3219 21.6768H75.7366V24.9368C75.7366 25.7691 76.0123 26.1853 76.5637 26.1853C76.8394 26.1853 77.0462 26.1853 77.184 26.1159L77.253 27.2257C76.9773 27.3644 76.5637 27.3644 76.0813 27.3644C75.5299 27.3644 75.0474 27.1563 74.7028 26.8095C74.3582 26.4627 74.2203 25.8385 74.2203 25.0061V21.6768H73.2554V20.567H74.2203V19.3185L75.6677 18.9023V20.567H77.253C77.3219 20.567 77.3219 21.6768 77.3219 21.6768Z" fill="#575A65"/>
    <path d="M84.6288 23.8264C84.6288 24.8669 84.3531 25.6992 83.7328 26.3234C83.1125 27.0171 82.2854 27.3639 81.3205 27.3639C80.3555 27.3639 79.5974 27.0171 78.9771 26.3928C78.3568 25.7686 78.0811 24.9362 78.0811 23.9652C78.0811 22.9247 78.3568 22.0924 78.9771 21.3988C79.5974 20.7745 80.3555 20.4277 81.3894 20.4277C82.3543 20.4277 83.1125 20.7745 83.7328 21.3988C84.3531 22.023 84.6288 22.8554 84.6288 23.8264ZM83.1125 23.8958C83.1125 23.2715 82.9747 22.786 82.699 22.3005C82.4233 21.7456 81.9408 21.5375 81.3894 21.5375C80.7691 21.5375 80.3555 21.815 80.0109 22.3005C79.7352 22.7167 79.5974 23.2715 79.5974 23.8958C79.5974 24.52 79.7352 25.0056 80.0109 25.4911C80.3555 26.046 80.7691 26.2541 81.3205 26.2541C81.8719 26.2541 82.3543 25.9766 82.63 25.4217C82.9747 25.0056 83.1125 24.52 83.1125 23.8958Z" fill="#575A65"/>
    <path d="M89.3848 21.8843C89.2469 21.8843 89.1091 21.815 88.9023 21.815C88.3509 21.815 88.0063 22.023 87.7306 22.4392C87.4549 22.786 87.386 23.2022 87.386 23.7571V27.2251H85.9386V22.6473C85.9386 21.8843 85.9386 21.1907 85.8696 20.5665H87.1792L87.2481 21.815H87.317C87.4549 21.3988 87.7306 21.052 88.0752 20.7745C88.4198 20.5665 88.7644 20.4277 89.1091 20.4277C89.2469 20.4277 89.3847 20.4277 89.4537 20.4277C89.3847 20.4971 89.3848 21.8843 89.3848 21.8843Z" fill="#575A65"/>
    <path d="M95.9997 23.6193C95.9997 23.8967 95.9997 24.1048 95.9308 24.3129H91.5197C91.5197 24.9371 91.7264 25.492 92.14 25.8388C92.4846 26.1163 92.9671 26.3244 93.5874 26.3244C94.2077 26.3244 94.828 26.1856 95.3794 25.9776L95.5862 27.018C94.9659 27.2954 94.2077 27.4341 93.3806 27.4341C92.3468 27.4341 91.5197 27.1567 90.9683 26.5325C90.4169 25.9082 90.0723 25.1452 90.0723 24.1048C90.0723 23.1337 90.348 22.2321 90.8994 21.6078C91.4507 20.9142 92.2089 20.5674 93.2428 20.5674C94.2077 20.5674 94.8969 20.9142 95.3794 21.6078C95.793 22.024 95.9997 22.7869 95.9997 23.6193ZM94.5523 23.2031C94.5523 22.7869 94.4834 22.3708 94.2766 22.0933C94.0009 21.6772 93.6563 21.4691 93.1049 21.4691C92.6225 21.4691 92.2089 21.6772 91.9332 22.0933C91.6575 22.4401 91.5197 22.7869 91.5197 23.2725L94.5523 23.2031Z" fill="#575A65"/>
    <path d="M44.0619 11.9433C44.0619 12.629 43.8351 13.1433 43.4382 13.4861C43.0413 13.7719 42.5309 13.9433 41.8505 13.9433C41.5103 13.9433 41.2268 13.9433 41 13.8861V10.229C41.3402 10.1719 41.6804 10.1719 42.0206 10.1719C42.6443 10.1719 43.1547 10.2862 43.4949 10.5719C43.8918 10.9147 44.0619 11.3719 44.0619 11.9433ZM43.4382 11.9433C43.4382 11.4862 43.3248 11.2004 43.098 10.9147C42.8711 10.6862 42.5309 10.5719 42.0773 10.5719C41.9072 10.5719 41.7371 10.5719 41.6237 10.629V13.429C41.6804 13.429 41.8505 13.429 42.0206 13.429C42.4742 13.429 42.8144 13.3147 43.098 13.029C43.3815 12.7433 43.4382 12.4576 43.4382 11.9433Z" fill="#575A65"/>
    <path d="M47.4066 12.514C47.4066 12.914 47.2932 13.2569 47.0664 13.5426C46.8396 13.8283 46.4994 13.9426 46.1025 13.9426C45.7056 13.9426 45.4221 13.8283 45.1385 13.5426C44.9117 13.2569 44.7983 12.9711 44.7983 12.5711C44.7983 12.1711 44.9117 11.8283 45.1385 11.5426C45.3654 11.2569 45.7056 11.1426 46.1025 11.1426C46.4994 11.1426 46.7829 11.2569 47.0664 11.5426C47.2932 11.8283 47.4066 12.114 47.4066 12.514ZM46.7829 12.5711C46.7829 12.3426 46.7262 12.114 46.6128 11.9426C46.4994 11.714 46.3293 11.5997 46.1025 11.5997C45.8757 11.5997 45.7056 11.714 45.5355 11.9426C45.4221 12.114 45.3654 12.3426 45.3654 12.5711C45.3654 12.7997 45.4221 13.0283 45.5355 13.1997C45.6489 13.4283 45.819 13.5426 46.1025 13.5426C46.3293 13.5426 46.4994 13.4283 46.6128 13.1997C46.7262 13.0283 46.7829 12.7997 46.7829 12.5711Z" fill="#575A65"/>
    <path d="M51.8875 11.1992L51.037 13.8849H50.47L50.1297 12.7421C50.0163 12.4564 49.9596 12.1706 49.9029 11.8849C49.8462 12.1706 49.7895 12.4564 49.6761 12.7421L49.3359 13.8849H48.7689L47.9751 11.1992H48.5988L48.8823 12.4564C48.939 12.7421 48.9957 13.0278 49.0524 13.3135C49.1091 13.0849 49.1658 12.7992 49.2792 12.4564L49.6761 11.1992H50.1865L50.5267 12.4564C50.6401 12.7421 50.6968 13.0849 50.7535 13.3706C50.8102 13.0849 50.8669 12.7992 50.9236 12.4564L51.2638 11.1992H51.8875Z" fill="#575A65"/>
    <path d="M54.9497 13.8859H54.3827V12.3431C54.3827 11.8859 54.2126 11.6574 53.8724 11.6574C53.7023 11.6574 53.5322 11.7145 53.4188 11.8288C53.3054 11.9431 53.2487 12.1145 53.2487 12.2859V13.8859H52.6816V11.9431C52.6816 11.7145 52.6816 11.4288 52.6816 11.2002H53.1353V11.6002C53.192 11.4859 53.3054 11.3717 53.4188 11.2574C53.5889 11.1431 53.759 11.0859 53.9291 11.0859C54.1559 11.0859 54.3827 11.1431 54.5528 11.3145C54.7796 11.4859 54.8363 11.8288 54.8363 12.2288V13.8859H54.9497Z" fill="#575A65"/>
    <path d="M56.5929 13.8857H56.0259V10H56.5929V13.8857Z" fill="#575A65"/>
    <path d="M60.1097 12.514C60.1097 12.914 59.9963 13.2569 59.7695 13.5426C59.5427 13.8283 59.2025 13.9426 58.8056 13.9426C58.4087 13.9426 58.1252 13.8283 57.8417 13.5426C57.6149 13.2569 57.5015 12.9711 57.5015 12.5711C57.5015 12.1711 57.6149 11.8283 57.8417 11.5426C58.0685 11.2569 58.4087 11.1426 58.8056 11.1426C59.2025 11.1426 59.486 11.2569 59.7695 11.5426C59.9963 11.8283 60.1097 12.114 60.1097 12.514ZM59.486 12.5711C59.486 12.3426 59.4293 12.114 59.3159 11.9426C59.2025 11.714 59.0324 11.5997 58.8056 11.5997C58.5788 11.5997 58.4087 11.714 58.2386 11.9426C58.1252 12.114 58.0685 12.3426 58.0685 12.5711C58.0685 12.7997 58.1252 13.0283 58.2386 13.1997C58.352 13.4283 58.5221 13.5426 58.8056 13.5426C59.0324 13.5426 59.2025 13.4283 59.3159 13.1997C59.4293 13.0283 59.486 12.7997 59.486 12.5711Z" fill="#575A65"/>
    <path d="M62.9448 13.8854H62.4344L62.3777 13.5997C62.2076 13.8283 61.9241 13.9426 61.5839 13.9426C61.3571 13.9426 61.1303 13.8854 60.9602 13.714C60.8468 13.5426 60.7334 13.3711 60.7334 13.1426C60.7334 12.7997 60.8468 12.5711 61.1303 12.3997C61.4138 12.2283 61.8107 12.114 62.2643 12.1711V12.114C62.2643 11.7711 62.0942 11.5997 61.6973 11.5997C61.4138 11.5997 61.187 11.6569 61.0169 11.7711L60.9602 11.3711C61.187 11.1997 61.5272 11.1426 61.8674 11.1426C62.5478 11.1426 62.888 11.4854 62.888 12.2283V13.1997C62.9447 13.5426 62.9448 13.7711 62.9448 13.8854ZM62.321 12.9711V12.5711C61.6406 12.5711 61.3571 12.7426 61.3571 13.0854C61.3571 13.1997 61.4138 13.314 61.4705 13.4283C61.5272 13.4854 61.6406 13.5426 61.754 13.5426C61.8674 13.5426 61.9808 13.4854 62.0942 13.4283C62.2076 13.3711 62.2643 13.2569 62.321 13.0854C62.321 13.0283 62.321 13.0283 62.321 12.9711Z" fill="#575A65"/>
    <path d="M66.3454 13.8857H65.8351V13.4286C65.665 13.7714 65.3815 13.9428 64.9846 13.9428C64.6444 13.9428 64.4176 13.8286 64.1908 13.5428C63.964 13.2571 63.8506 12.9714 63.8506 12.5714C63.8506 12.1143 63.964 11.7714 64.1908 11.4857C64.4176 11.2571 64.7011 11.0857 65.0413 11.0857C65.3815 11.0857 65.665 11.2 65.7784 11.4286V10H66.3454V13.2C66.2887 13.4286 66.3454 13.6571 66.3454 13.8857ZM65.7217 12.7428V12.2857C65.7217 12.2286 65.7217 12.1714 65.7217 12.1143C65.665 11.9428 65.6083 11.8286 65.4949 11.7714C65.3815 11.6571 65.2681 11.6 65.098 11.6C64.8712 11.6 64.7011 11.7143 64.5877 11.8857C64.4743 12.0571 64.4176 12.2857 64.4176 12.5714C64.4176 12.8571 64.4743 13.0286 64.5877 13.2C64.7011 13.3714 64.8712 13.4857 65.098 13.4857C65.2681 13.4857 65.4382 13.4286 65.5516 13.2571C65.665 13.1428 65.7217 12.9714 65.7217 12.7428Z" fill="#575A65"/>
    <path d="M71.391 12.514C71.391 12.914 71.2776 13.2569 71.0508 13.5426C70.824 13.8283 70.4838 13.9426 70.0868 13.9426C69.6899 13.9426 69.4064 13.8283 69.1229 13.5426C68.8961 13.2569 68.7827 12.9711 68.7827 12.5711C68.7827 12.1711 68.8961 11.8283 69.1229 11.5426C69.3497 11.2569 69.6899 11.1426 70.0868 11.1426C70.4838 11.1426 70.7673 11.2569 71.0508 11.5426C71.2776 11.8283 71.391 12.114 71.391 12.514ZM70.824 12.5711C70.824 12.3426 70.7673 12.114 70.6539 11.9426C70.5405 11.714 70.3704 11.5997 70.1435 11.5997C69.9167 11.5997 69.7466 11.714 69.5765 11.9426C69.4631 12.114 69.4064 12.3426 69.4064 12.5711C69.4064 12.7997 69.4631 13.0283 69.5765 13.1997C69.6899 13.4283 69.86 13.5426 70.1435 13.5426C70.3704 13.5426 70.5405 13.4283 70.6539 13.1997C70.7673 13.0283 70.824 12.7997 70.824 12.5711Z" fill="#575A65"/>
    <path d="M74.6231 13.8859H74.0561V12.3431C74.0561 11.8859 73.886 11.6574 73.4891 11.6574C73.319 11.6574 73.1489 11.7145 73.0355 11.8288C72.9221 11.9431 72.8654 12.1145 72.8654 12.2859V13.8859H72.2983V11.9431C72.2983 11.7145 72.2983 11.4288 72.2983 11.2002H72.8086V11.6002C72.8654 11.4859 72.9788 11.3717 73.0922 11.2574C73.2623 11.1431 73.4324 11.0859 73.6592 11.0859C73.886 11.0859 74.1128 11.1431 74.2829 11.3145C74.5097 11.4859 74.5664 11.8288 74.5664 12.2288V13.8859H74.6231Z" fill="#575A65"/>
    <path d="M78.5901 11.657H77.9097V12.9713C77.9097 13.3141 78.0231 13.4856 78.2499 13.4856C78.3633 13.4856 78.42 13.4856 78.5334 13.4856V13.9427C78.42 13.9998 78.2499 13.9998 78.0798 13.9998C77.853 13.9998 77.6829 13.9427 77.5128 13.7713C77.3994 13.5998 77.3427 13.3713 77.3427 13.0284V11.657H76.9458V11.1999H77.3427V10.7427L77.9097 10.5713V11.257H78.5901V11.657Z" fill="#575A65"/>
    <path d="M81.768 13.8857H81.201V12.3428C81.201 11.8857 81.0309 11.6 80.6907 11.6C80.4072 11.6 80.2371 11.7143 80.1237 12C80.1237 12.0571 80.1237 12.1143 80.1237 12.2286V13.8286H79.5566V10H80.1237V11.6C80.2938 11.3143 80.5773 11.1429 80.9175 11.1429C81.1443 11.1429 81.3711 11.2 81.5412 11.3714C81.768 11.6 81.8247 11.8857 81.8247 12.2857C81.768 12.2857 81.768 13.8857 81.768 13.8857Z" fill="#575A65"/>
    <path d="M85.0005 12.4564C85.0005 12.5706 85.0005 12.6278 85.0005 12.7421H83.1861C83.1861 13.0278 83.2995 13.1992 83.4696 13.3706C83.6397 13.4849 83.8098 13.5421 84.0366 13.5421C84.3201 13.5421 84.5469 13.4849 84.7737 13.4278L84.8871 13.8278C84.6603 13.9421 84.3201 13.9992 83.9799 13.9992C83.583 13.9992 83.2428 13.8849 83.016 13.6564C82.7892 13.4278 82.6758 13.0849 82.6758 12.6849C82.6758 12.2849 82.7892 11.9421 83.016 11.6564C83.2428 11.3706 83.583 11.1992 83.9232 11.1992C84.3201 11.1992 84.6036 11.3706 84.7737 11.6564C84.9438 11.8278 85.0005 12.1135 85.0005 12.4564ZM84.4335 12.2849C84.4335 12.1135 84.3768 11.9421 84.3201 11.8278C84.2067 11.6564 84.0366 11.5992 83.8665 11.5992C83.6964 11.5992 83.5263 11.6564 83.4129 11.8278C83.2995 11.9421 83.2428 12.1135 83.2428 12.2849C83.1861 12.2849 84.4335 12.2849 84.4335 12.2849Z" fill="#575A65"/>
</svg>
