<svg width="142" height="55" viewBox="0 0 142 55" fill="none" xmlns="http://www.w3.org/2000/svg">
    <rect x="0.532227" y="-0.000488281" width="140.621" height="54.9577" rx="10" fill="#010101"/>
    <path d="M34.4019 28.3815C34.4019 24.7599 37.3944 22.9491 37.6246 22.8359C35.8982 20.346 33.1359 20.0065 32.2151 20.0065C29.9132 19.7802 27.7264 21.3646 26.5755 21.3646C25.4245 21.3646 23.583 20.0065 21.7415 20.1197C19.3245 20.1197 17.0226 21.591 15.7566 23.7413C13.1094 28.1552 15.066 34.7194 17.5981 38.3411C18.8641 40.1519 20.3604 42.0759 22.2019 41.9627C24.0434 41.8495 24.734 40.8309 27.0359 40.8309C29.2227 40.8309 29.9132 41.9627 31.8699 41.9627C33.8265 41.9627 35.0925 40.1519 36.3586 38.4542C37.8548 36.4171 38.4303 34.4931 38.4303 34.3799C38.3152 34.1535 34.517 32.6822 34.4019 28.3815Z" fill="white"/>
    <path d="M30.7161 17.63C31.7519 16.385 32.4425 14.6874 32.2123 12.9897C30.7161 13.1029 28.9896 14.0083 27.8387 15.1401C26.9179 16.1587 26.1123 17.9695 26.3425 19.554C28.0689 19.7803 29.6802 18.8749 30.7161 17.63Z" fill="white"/>
    <path d="M59.4616 38.0401H57.1907L56.0059 34.2107H51.7603L50.5755 38.0401H48.4033L52.6489 24.981H55.216L59.4616 38.0401ZM55.7097 32.6397L54.6236 29.2031C54.5249 28.8103 54.3274 28.0248 53.9325 26.7484C53.8337 27.3375 53.6363 28.123 53.3401 29.2031L52.1553 32.6397H55.7097Z" fill="white"/>
    <path d="M70.419 33.2287C70.419 34.7998 70.024 36.0762 69.1354 37.0581C68.3455 37.8436 67.3582 38.3346 66.2721 38.3346C64.9885 38.3346 64.0999 37.8436 63.6063 36.9599V41.9676H61.5328V31.7559C61.5328 30.774 61.5328 29.6939 61.4341 28.6139H63.3101L63.4088 30.0867C64.0999 29.0066 65.186 28.4175 66.5683 28.4175C67.6544 28.4175 68.6417 28.8102 69.3329 29.6939C70.024 30.5776 70.419 31.7559 70.419 33.2287ZM68.2468 33.3269C68.2468 32.4432 68.0493 31.6577 67.6544 31.0686C67.1607 30.4794 66.5683 30.1849 65.7784 30.1849C65.2848 30.1849 64.7911 30.3813 64.3961 30.6758C64.0012 31.0686 63.705 31.4613 63.6063 32.0505C63.5075 32.345 63.5075 32.5414 63.5075 32.6396V34.2106C63.5075 34.898 63.705 35.4871 64.0999 35.978C64.4949 36.469 65.0873 36.6654 65.7784 36.6654C66.5683 36.6654 67.1607 36.3708 67.6544 35.7817C68.0493 35.0943 68.2468 34.3088 68.2468 33.3269Z" fill="white"/>
    <path d="M81.2813 33.2287C81.2813 34.7998 80.8863 36.0762 79.9977 37.0581C79.2078 37.8436 78.2205 38.3346 77.1344 38.3346C75.8509 38.3346 74.9622 37.8436 74.4686 36.9599V41.9676H72.3951V31.7559C72.3951 30.774 72.3951 29.6939 72.2964 28.6139H74.1724L74.2711 30.0867C74.9622 29.0066 76.0483 28.4175 77.4306 28.4175C78.5167 28.4175 79.504 28.8102 80.1952 29.6939C80.8863 30.5776 81.2813 31.7559 81.2813 33.2287ZM79.1091 33.3269C79.1091 32.4432 78.9116 31.6577 78.5167 31.0686C78.023 30.4794 77.4306 30.1849 76.6407 30.1849C76.1471 30.1849 75.6534 30.3813 75.2584 30.6758C74.8635 31.0686 74.5673 31.4613 74.4686 32.0505C74.3698 32.345 74.3698 32.5414 74.3698 32.6396V34.2106C74.3698 34.898 74.5673 35.4871 74.9622 35.978C75.3572 36.469 75.9496 36.6654 76.6407 36.6654C77.4306 36.6654 78.023 36.3708 78.5167 35.7817C78.9116 35.0943 79.1091 34.3088 79.1091 33.3269Z" fill="white"/>
    <path d="M93.4224 34.4066C93.4224 35.4867 93.0275 36.4686 92.2376 37.1559C91.349 37.9414 90.1642 38.3342 88.6832 38.3342C87.3009 38.3342 86.1161 38.0396 85.3262 37.5487L85.8198 35.7813C86.7085 36.3704 87.7945 36.665 88.8806 36.665C89.6705 36.665 90.2629 36.4686 90.7566 36.174C91.1515 35.7813 91.4477 35.3885 91.4477 34.7012C91.4477 34.2102 91.2503 33.7193 90.8553 33.3265C90.4604 32.9338 89.868 32.6392 89.0781 32.3446C86.8072 31.4609 85.6224 30.2827 85.6224 28.6135C85.6224 27.5334 86.0173 26.6497 86.8072 25.9624C87.5971 25.275 88.6832 24.9805 90.0655 24.9805C91.2503 24.9805 92.2376 25.1768 93.0275 25.5696L92.4351 27.1406C91.6452 26.7479 90.8553 26.5515 89.9667 26.5515C89.1768 26.5515 88.6832 26.7479 88.1895 27.1406C87.7945 27.4352 87.6958 27.828 87.6958 28.3189C87.6958 28.8098 87.8933 29.3008 88.2882 29.5954C88.6832 29.8899 89.2756 30.2827 90.1642 30.5772C91.2503 31.0682 92.1389 31.5591 92.6326 32.1483C93.225 32.7374 93.4224 33.5229 93.4224 34.4066Z" fill="white"/>
    <path d="M100.435 30.1844H98.1643V34.7993C98.1643 35.9776 98.5593 36.5667 99.3492 36.5667C99.7441 36.5667 100.04 36.5667 100.238 36.4685L100.337 38.0395C99.9416 38.2359 99.3492 38.2359 98.658 38.2359C97.8681 38.2359 97.177 37.9413 96.6833 37.4504C96.1896 36.9594 95.9922 36.0757 95.9922 34.8975V30.1844H94.6099V28.6134H95.9922V26.846L98.0656 26.2568V28.6134H100.337C100.435 28.6134 100.435 30.1844 100.435 30.1844Z" fill="white"/>
    <path d="M110.902 33.2287C110.902 34.7016 110.507 35.8798 109.619 36.7635C108.73 37.7454 107.545 38.2364 106.163 38.2364C104.781 38.2364 103.695 37.7454 102.806 36.8617C101.917 35.978 101.522 34.7998 101.522 33.4251C101.522 31.9523 101.917 30.774 102.806 29.7921C103.695 28.9084 104.781 28.4175 106.262 28.4175C107.644 28.4175 108.73 28.9084 109.619 29.7921C110.507 30.6758 110.902 31.8541 110.902 33.2287ZM108.73 33.3269C108.73 32.4432 108.533 31.7559 108.138 31.0686C107.743 30.2831 107.052 29.9885 106.262 29.9885C105.373 29.9885 104.781 30.3813 104.287 31.0686C103.892 31.6577 103.695 32.4432 103.695 33.3269C103.695 34.2106 103.892 34.898 104.287 35.5853C104.781 36.3708 105.373 36.6654 106.163 36.6654C106.953 36.6654 107.644 36.2726 108.039 35.4871C108.533 34.898 108.73 34.2106 108.73 33.3269Z" fill="white"/>
    <path d="M117.715 30.4794C117.518 30.4794 117.32 30.3813 117.024 30.3813C116.234 30.3813 115.74 30.6758 115.346 31.265C114.951 31.7559 114.852 32.345 114.852 33.1306V38.04H112.778V31.5595C112.778 30.4794 112.778 29.4976 112.68 28.6139H114.556L114.654 30.3813H114.753C114.951 29.7921 115.346 29.3012 115.839 28.9084C116.333 28.6139 116.827 28.4175 117.32 28.4175C117.518 28.4175 117.715 28.4175 117.814 28.4175C117.715 28.5157 117.715 30.4794 117.715 30.4794Z" fill="white"/>
    <path d="M127.19 32.9341C127.19 33.3268 127.19 33.6214 127.092 33.916H120.773C120.773 34.7997 121.069 35.5852 121.661 36.0761C122.155 36.4689 122.846 36.7635 123.735 36.7635C124.623 36.7635 125.512 36.5671 126.302 36.2725L126.598 37.7454C125.709 38.1381 124.623 38.3345 123.439 38.3345C121.957 38.3345 120.773 37.9417 119.983 37.058C119.193 36.1743 118.699 35.0942 118.699 33.6214C118.699 32.2468 119.094 30.9703 119.884 30.0866C120.674 29.1047 121.76 28.6138 123.241 28.6138C124.623 28.6138 125.611 29.1047 126.302 30.0866C126.894 30.6757 127.19 31.7558 127.19 32.9341ZM125.117 32.345C125.117 31.7558 125.018 31.1667 124.722 30.7739C124.327 30.1848 123.833 29.8902 123.044 29.8902C122.352 29.8902 121.76 30.1848 121.365 30.7739C120.97 31.2649 120.773 31.7558 120.773 32.4431L125.117 32.345Z" fill="white"/>
    <path d="M53.7506 16.3872C53.7506 17.5861 53.3548 18.4853 52.6621 19.0847C51.9693 19.5842 51.0787 19.884 49.8912 19.884C49.2974 19.884 48.8026 19.884 48.4067 19.7841V13.3899C49.0005 13.29 49.5943 13.29 50.188 13.29C51.2766 13.29 52.1673 13.4899 52.761 13.9894C53.4538 14.5888 53.7506 15.3881 53.7506 16.3872ZM52.6621 16.3872C52.6621 15.5879 52.4641 15.0884 52.0683 14.5888C51.6725 14.1892 51.0787 13.9894 50.287 13.9894C49.9901 13.9894 49.6932 13.9894 49.4953 14.0893V18.9848C49.5943 18.9848 49.8912 18.9848 50.188 18.9848C50.9797 18.9848 51.5735 18.785 52.0683 18.2854C52.5631 17.7859 52.6621 17.2864 52.6621 16.3872Z" fill="#A4A4A4"/>
    <path d="M59.5888 17.3875C59.5888 18.0869 59.3909 18.6863 58.9951 19.1859C58.5992 19.6854 58.0055 19.8852 57.3127 19.8852C56.62 19.8852 56.1252 19.6854 55.6304 19.1859C55.2345 18.6863 55.0366 18.1868 55.0366 17.4874C55.0366 16.7881 55.2345 16.1886 55.6304 15.6891C56.0262 15.1896 56.62 14.9897 57.3127 14.9897C58.0055 14.9897 58.5003 15.1896 58.9951 15.6891C59.3909 16.1886 59.5888 16.6882 59.5888 17.3875ZM58.5003 17.4874C58.5003 17.0878 58.4013 16.6882 58.2034 16.3885C58.0055 15.9888 57.7086 15.789 57.3127 15.789C56.9169 15.789 56.62 15.9888 56.3231 16.3885C56.1252 16.6882 56.0262 17.0878 56.0262 17.4874C56.0262 17.8871 56.1252 18.2867 56.3231 18.5864C56.521 18.9861 56.8179 19.1859 57.3127 19.1859C57.7086 19.1859 58.0055 18.9861 58.2034 18.5864C58.4013 18.2867 58.5003 17.8871 58.5003 17.4874Z" fill="#A4A4A4"/>
    <path d="M67.4079 15.0894L65.9235 19.785H64.9339L64.3401 17.7869C64.1422 17.2873 64.0432 16.7878 63.9443 16.2883C63.8453 16.7878 63.7463 17.2873 63.5484 17.7869L62.9547 19.785H61.965L60.5796 15.0894H61.6682L62.163 17.2873C62.2619 17.7869 62.3609 18.2864 62.4598 18.786C62.5588 18.3863 62.6578 17.8868 62.8557 17.2873L63.5484 15.0894H64.4391L65.0328 17.2873C65.2308 17.7869 65.3297 18.3863 65.4287 18.8859C65.5276 18.3863 65.6266 17.8868 65.7256 17.2873L66.3193 15.0894H67.4079Z" fill="#A4A4A4"/>
    <path d="M72.7519 19.7856H71.7623V17.0881C71.7623 16.2888 71.4654 15.8892 70.8716 15.8892C70.5748 15.8892 70.2779 15.9891 70.08 16.1889C69.882 16.3888 69.7831 16.6885 69.7831 16.9882V19.7856H68.7935V16.3888C68.7935 15.9891 68.7935 15.4896 68.7935 15.09H69.5851V15.7893C69.6841 15.5895 69.882 15.3897 70.08 15.1899C70.3768 14.99 70.6737 14.8901 70.9706 14.8901C71.3664 14.8901 71.7623 14.99 72.0592 15.2898C72.455 15.5895 72.554 16.1889 72.554 16.8883V19.7856H72.7519Z" fill="#A4A4A4"/>
    <path d="M75.621 19.7835H74.6313V12.9897H75.621V19.7835Z" fill="#A4A4A4"/>
    <path d="M81.7583 17.3875C81.7583 18.0869 81.5603 18.6863 81.1645 19.1859C80.7687 19.6854 80.1749 19.8852 79.4822 19.8852C78.7894 19.8852 78.2946 19.6854 77.7998 19.1859C77.404 18.6863 77.2061 18.1868 77.2061 17.4874C77.2061 16.7881 77.404 16.1886 77.7998 15.6891C78.1957 15.1896 78.7894 14.9897 79.4822 14.9897C80.1749 14.9897 80.6697 15.1896 81.1645 15.6891C81.5603 16.1886 81.7583 16.6882 81.7583 17.3875ZM80.6697 17.4874C80.6697 17.0878 80.5707 16.6882 80.3728 16.3885C80.1749 15.9888 79.878 15.789 79.4822 15.789C79.0863 15.789 78.7894 15.9888 78.4926 16.3885C78.2946 16.6882 78.1957 17.0878 78.1957 17.4874C78.1957 17.8871 78.2946 18.2867 78.4926 18.5864C78.6905 18.9861 78.9874 19.1859 79.4822 19.1859C79.878 19.1859 80.1749 18.9861 80.3728 18.5864C80.5707 18.2867 80.6697 17.8871 80.6697 17.4874Z" fill="#A4A4A4"/>
    <path d="M86.7057 19.7853H85.815L85.7161 19.2858C85.4192 19.6854 84.9244 19.8852 84.3306 19.8852C83.9348 19.8852 83.5389 19.7853 83.242 19.4856C83.0441 19.1859 82.8462 18.8862 82.8462 18.4865C82.8462 17.8871 83.0441 17.4874 83.5389 17.1877C84.0337 16.888 84.7264 16.6882 85.5181 16.7881V16.6882C85.5181 16.0887 85.2213 15.789 84.5285 15.789C84.0337 15.789 83.6379 15.8889 83.341 16.0887L83.242 15.3894C83.6379 15.0897 84.2316 14.9897 84.8254 14.9897C86.0129 14.9897 86.6067 15.5892 86.6067 16.888V18.5864C86.7057 19.1859 86.7057 19.5855 86.7057 19.7853ZM85.6171 18.1868V17.4874C84.4296 17.4874 83.9348 17.7872 83.9348 18.3866C83.9348 18.5864 84.0337 18.7863 84.1327 18.9861C84.2316 19.086 84.4296 19.1859 84.6275 19.1859C84.8254 19.1859 85.0233 19.086 85.2213 18.9861C85.4192 18.8862 85.5181 18.6863 85.6171 18.3866C85.6171 18.2867 85.6171 18.2867 85.6171 18.1868Z" fill="#A4A4A4"/>
    <path d="M92.6429 19.7835H91.7522V18.9842C91.4553 19.5837 90.9605 19.8834 90.2678 19.8834C89.674 19.8834 89.2782 19.6836 88.8823 19.184C88.4865 18.6845 88.2886 18.185 88.2886 17.4856C88.2886 16.6863 88.4865 16.0869 88.8823 15.5874C89.2782 15.1877 89.773 14.888 90.3668 14.888C90.9605 14.888 91.4553 15.0878 91.6533 15.4874V12.9897H92.6429V18.5846C92.5439 18.9842 92.6429 19.3839 92.6429 19.7835ZM91.5543 17.7853V16.9861C91.5543 16.8862 91.5543 16.7863 91.5543 16.6863C91.4553 16.3866 91.3564 16.1868 91.1584 16.0869C90.9605 15.8871 90.7626 15.7872 90.4657 15.7872C90.0699 15.7872 89.773 15.987 89.5751 16.2867C89.3771 16.5864 89.2782 16.9861 89.2782 17.4856C89.2782 17.9851 89.3771 18.2849 89.5751 18.5846C89.773 18.8843 90.0699 19.0841 90.4657 19.0841C90.7626 19.0841 91.0595 18.9842 91.2574 18.6845C91.4553 18.4847 91.5543 18.185 91.5543 17.7853Z" fill="#A4A4A4"/>
    <path d="M101.449 17.3875C101.449 18.0869 101.251 18.6863 100.855 19.1859C100.459 19.6854 99.8653 19.8852 99.1726 19.8852C98.4799 19.8852 97.9851 19.6854 97.4902 19.1859C97.0944 18.6863 96.8965 18.1868 96.8965 17.4874C96.8965 16.7881 97.0944 16.1886 97.4902 15.6891C97.8861 15.1896 98.4799 14.9897 99.1726 14.9897C99.8653 14.9897 100.36 15.1896 100.855 15.6891C101.251 16.1886 101.449 16.6882 101.449 17.3875ZM100.459 17.4874C100.459 17.0878 100.36 16.6882 100.162 16.3885C99.9643 15.9888 99.6674 15.789 99.2716 15.789C98.8757 15.789 98.5788 15.9888 98.2819 16.3885C98.084 16.6882 97.9851 17.0878 97.9851 17.4874C97.9851 17.8871 98.084 18.2867 98.2819 18.5864C98.4799 18.9861 98.7767 19.1859 99.2716 19.1859C99.6674 19.1859 99.9643 18.9861 100.162 18.5864C100.36 18.2867 100.459 17.8871 100.459 17.4874Z" fill="#A4A4A4"/>
    <path d="M107.09 19.7856H106.1V17.0881C106.1 16.2888 105.803 15.8892 105.11 15.8892C104.814 15.8892 104.517 15.9891 104.319 16.1889C104.121 16.3888 104.022 16.6885 104.022 16.9882V19.7856H103.032V16.3888C103.032 15.9891 103.032 15.4896 103.032 15.09H103.923V15.7893C104.022 15.5895 104.22 15.3897 104.418 15.1899C104.715 14.99 105.011 14.8901 105.407 14.8901C105.803 14.8901 106.199 14.99 106.496 15.2898C106.892 15.5895 106.991 16.1889 106.991 16.8883V19.7856H107.09Z" fill="#A4A4A4"/>
    <path d="M114.012 15.889H112.825V18.1869C112.825 18.7863 113.023 19.086 113.419 19.086C113.617 19.086 113.716 19.086 113.913 19.086V19.8853C113.716 19.9852 113.419 19.9852 113.122 19.9852C112.726 19.9852 112.429 19.8853 112.132 19.5856C111.934 19.2858 111.835 18.8862 111.835 18.2868V15.889H111.143V15.0897H111.835V14.2904L112.825 13.9907V15.1896H114.012V15.889Z" fill="#A4A4A4"/>
    <path d="M119.558 19.7835H118.569V17.086C118.569 16.2867 118.272 15.7872 117.678 15.7872C117.183 15.7872 116.886 15.987 116.688 16.4865C116.688 16.5864 116.688 16.6863 116.688 16.8862V19.6836H115.699V12.9897H116.688V15.7872C116.985 15.2876 117.48 14.9879 118.074 14.9879C118.47 14.9879 118.865 15.0878 119.162 15.3875C119.558 15.7872 119.657 16.2867 119.657 16.9861C119.558 16.9861 119.558 19.7835 119.558 19.7835Z" fill="#A4A4A4"/>
    <path d="M125.199 17.2873C125.199 17.4871 125.199 17.5871 125.199 17.7869H122.032C122.032 18.2864 122.23 18.5861 122.527 18.8859C122.824 19.0857 123.121 19.1856 123.517 19.1856C124.011 19.1856 124.407 19.0857 124.803 18.9858L125.001 19.6851C124.605 19.8849 124.011 19.9848 123.418 19.9848C122.725 19.9848 122.131 19.785 121.735 19.3854C121.34 18.9858 121.142 18.3863 121.142 17.687C121.142 16.9876 121.34 16.3882 121.735 15.8886C122.131 15.3891 122.725 15.0894 123.319 15.0894C124.011 15.0894 124.506 15.3891 124.803 15.8886C125.1 16.1883 125.199 16.6879 125.199 17.2873ZM124.209 16.9876C124.209 16.6879 124.11 16.3882 124.011 16.1883C123.814 15.8886 123.517 15.7887 123.22 15.7887C122.923 15.7887 122.626 15.8886 122.428 16.1883C122.23 16.3882 122.131 16.6879 122.131 16.9876C122.032 16.9876 124.209 16.9876 124.209 16.9876Z" fill="#A4A4A4"/>
</svg>
