
<svg width="1440" height="900" viewBox="0 0 1440 900" fill="none" xmlns="http://www.w3.org/2000/svg">
<g opacity="0.06">
<path d="M0.127229 -249.241L0.127271 -253.971C74.6478 -192.365 129.57 -53.9007 140.803 101.118C143.798 143.095 160.4 170.173 188.86 179.514C209.831 186.372 236.169 183.535 265.129 171.119C293.964 158.703 322.674 138.129 348.139 111.524C357.875 101.355 370.233 89.7666 383.465 77.4691C444.755 20.357 528.514 -57.921 490.068 -127.331C468.973 -165.287 429.153 -172.382 387.087 -179.831C344.397 -187.399 300.208 -195.203 278.988 -238.362C272.622 -251.369 268.129 -266.386 265.508 -283.414H273.122C275.618 -267.451 279.862 -253.498 285.854 -241.318C305.451 -201.47 345.895 -194.257 388.585 -186.689C430.651 -179.24 474.091 -171.554 496.809 -130.523C526.767 -76.3672 488.944 -18.9002 441.759 30.999C408.43 70.611 366.738 106.912 342.397 133.635C258.762 225.63 132.438 254.008 116.711 131.862C101.109 11.6069 57.6706 -98.0059 0.251285 -167.179L0.127229 -249.241Z" fill="#FAB980"/>
<path d="M1358.36 -36.2763C1360.48 -22.4417 1364.97 -8.01584 1369.72 7.23773C1377.83 33.3698 1386.07 60.0931 1383.32 85.9886C1385.69 109.046 1383.82 131.749 1371.71 152.56C1357.23 177.392 1322.16 185.551 1296.32 175.263C1215.31 142.983 1211.06 27.4576 1118.69 11.4945H1118.57C1080 1.56201 1035.93 22.1366 1007.1 44.7213C958.291 83.1508 918.096 153.152 909.857 216.412C909.982 219.25 909.982 222.206 910.107 225.044C910.855 250.349 911.604 278.373 909.606 306.16C909.356 353.458 904.488 402.648 879.897 440.25C841.2 499.608 741.839 483.054 759.44 427.243C757.318 424.641 755.445 421.803 754.197 418.847C749.079 407.259 747.956 387.512 772.297 360.08C798.636 330.282 810.495 302.495 809.871 272.697C809.247 246.447 798.887 218.068 776.418 180.703C756.447 147.594 726.988 115.786 695.657 82.2048C647.474 30.2954 597.545 -23.5059 583.44 -84.2836C574.827 -121.531 576.076 -164.217 587.311 -211.278C592.803 -234.336 600.667 -258.576 610.903 -283.644H618.892C608.282 -257.985 600.168 -233.272 594.55 -209.741C583.565 -163.744 582.317 -122.004 590.68 -85.8208C604.41 -26.8167 653.591 26.2751 701.274 77.5933C732.73 111.529 762.563 143.574 782.909 177.274C806.127 215.703 816.736 245.146 817.36 272.579C818.109 304.268 805.626 333.475 778.039 364.691C760.688 384.32 754.946 402.057 761.187 416.128C766.804 428.662 781.659 437.057 801.131 438.476C823.226 440.131 855.556 431.736 874.405 403.002C906.485 353.931 904.364 282.511 902.742 225.163C902.617 219.25 902.367 213.456 902.243 207.781C900.62 139.199 943.686 52.5254 1002.35 6.41003C1031.81 -16.7659 1077.38 -37.8135 1117.19 -27.5262H1117.32C1157.14 -16.8842 1183.98 22.2548 1209.81 60.2113C1228.54 87.5258 1246.14 113.303 1267.86 128.202C1288.58 142.51 1310.17 148.185 1328.52 144.283C1344 140.972 1356.61 131.276 1365.97 115.313C1385.32 82.3231 1373.71 45.076 1362.6 9.12964C1357.73 -6.36038 1353.24 -21.0227 1350.99 -35.3303C1344.63 -76.4795 1349.5 -124.96 1364.6 -171.785C1378.96 -216.008 1401.8 -255.147 1429.64 -283.526H1440C1410.79 -255.62 1386.7 -215.417 1371.84 -169.656C1357.11 -124.487 1352.24 -75.8882 1358.36 -36.2763Z" fill="#FAB980"/>
<path d="M111.593 262.788C147.167 327.468 180.745 388.719 220.814 409.648C245.529 422.537 266.75 425.02 285.723 417.334C336.777 396.286 361.619 302.991 383.589 220.693C400.066 158.615 414.422 105.05 437.64 83.6475C465.476 57.9884 495.185 47.9376 525.892 53.7316C613.769 70.1676 684.17 209.696 703.642 252.146C734.598 319.427 729.48 367.553 685.541 424.192C680.048 431.287 673.557 438.736 666.692 446.658C636.609 481.422 599.285 524.818 616.511 569.633C629.992 604.752 621.628 641.053 592.294 674.516C567.703 702.422 529.131 727.135 486.441 742.152C470.962 747.591 454.86 752.321 439.256 756.932C381.337 773.96 326.663 790.159 291.836 841.477C280.602 858.032 269.492 877.778 259.631 899.299H251.517C261.878 876.241 273.611 855.194 285.595 837.575C321.92 784.129 380.463 766.865 437.134 750.074C452.613 745.463 468.591 740.851 483.944 735.412C525.511 720.868 562.959 696.982 586.677 669.904C605.9 648.029 625.498 613.265 609.645 571.998C590.922 523.399 629.743 478.348 661.075 442.165C667.816 434.361 674.182 426.912 679.674 419.935C721.741 365.779 726.61 319.545 696.902 254.984C685.792 230.862 662.325 184.037 629.871 141.233C594.046 94.1712 558.596 67.0932 524.643 60.708C496.433 55.5052 468.971 64.8466 443.007 88.732C421.287 108.715 406.557 164.054 390.953 222.467C368.609 306.42 343.268 401.489 288.844 423.837C267.873 432.469 243.907 429.749 217.319 415.915C175.253 393.921 141.176 331.843 105.102 266.099C72.897 207.45 39.8187 147.381 0.24912 114.746L0.249202 105.523C43.0642 138.04 77.7654 201.064 111.593 262.788Z" fill="#FAB980"/>
<path d="M67.5354 396.612C87.6321 435.041 106.73 471.342 131.945 488.724C171.39 515.92 216.576 526.562 259.267 518.64C302.831 510.599 341.528 483.758 367.991 443.2C378.601 426.882 388.837 395.074 399.698 361.257C421.418 293.621 446.009 216.998 488.7 206.829C502.681 203.518 515.288 205.055 526.148 211.441C555.232 228.468 566.341 276.593 575.203 315.141C579.073 331.814 582.318 346.239 586.437 355.108C608.531 403.115 604.786 437.524 573.454 477.964C568.711 483.994 563.468 489.907 557.851 496.292C543.246 512.728 528.017 529.637 523.648 549.147C521.526 558.725 523.398 567.83 525.396 577.526C527.767 589.114 530.263 601.175 525.146 613.472C505.173 662.426 433.148 680.399 375.229 694.825C359.126 698.845 343.897 702.629 331.664 706.649C252.025 732.899 143.052 768.727 90.9988 845.35C80.8878 860.249 71.0263 878.695 62.7876 898.797H54.7988C63.412 877.158 73.8976 857.293 84.7576 841.448C138.184 762.815 248.655 726.396 329.293 699.909C341.9 695.771 357.254 691.987 373.481 687.848C429.778 673.777 499.805 656.395 518.405 610.753C522.649 600.229 520.527 589.823 518.28 578.708C516.283 568.776 514.161 558.37 516.533 547.492C521.277 526.208 537.005 508.589 552.234 491.562C557.726 485.413 562.969 479.501 567.463 473.707C597.047 435.632 600.417 403.233 579.572 357.827C575.203 348.368 571.833 333.587 567.839 316.56C559.226 279.195 548.491 232.843 522.153 217.353C512.916 211.914 502.681 210.731 490.448 213.569C451.751 222.792 426.786 300.597 406.813 363.267C395.329 398.977 385.467 429.838 374.357 446.866C346.646 489.079 306.326 517.103 260.64 525.498C215.827 533.775 168.643 522.779 127.451 494.4C100.738 475.954 81.2659 438.943 60.7948 399.686C42.6953 365.04 24.0966 329.685 0.00541653 306.982L0.00550487 297.05C27.5918 320.344 47.8133 358.892 67.5354 396.612Z" fill="#FAB980"/>
<path d="M54.1824 521.25L57.9272 524.206C105.486 560.98 159.285 602.603 223.945 583.329C239.923 578.599 255.526 570.677 270.505 563.109C303.584 546.436 337.787 529.173 379.104 543.599C404.194 552.349 410.81 564.764 412.058 573.751C413.93 588.177 403.195 603.785 381.85 617.502C349.52 638.313 310.823 647.654 273.376 656.641C255.276 661.016 236.552 665.509 219.201 671.185C149.298 694.243 56.8019 724.632 0.00560245 783.636L0.00569395 773.348C58.2999 716.827 148.3 687.148 216.704 664.563C234.43 658.769 253.279 654.158 271.503 649.782C308.327 640.914 346.274 631.691 377.606 611.589C396.205 599.528 406.066 586.048 404.568 574.579C403.32 564.646 393.584 556.251 376.483 550.22C338.286 536.859 307.079 552.703 274 569.376C258.647 577.062 242.794 585.102 226.192 590.069H226.067C157.537 610.407 102.115 567.484 53.0589 529.646L49.3141 526.69C48.0659 525.744 46.3184 524.325 44.1963 522.669C28.0939 510.017 13.3645 499.02 0.00821596 489.797L0.00829484 480.929C17.1093 492.517 34.2103 505.524 49.0645 517.23C51.1865 519.004 52.9341 520.304 54.1824 521.25Z" fill="#FAB980"/>
<path d="M1228.14 208.475C1241.97 241.125 1246.74 270.758 1241.71 291.907C1234.53 322.013 1210.08 338.585 1186.36 354.516C1177.9 360.307 1168.99 366.333 1161.21 372.82C1140.89 389.798 1130.32 410.154 1119.09 431.74C1107.37 454.229 1095.36 477.46 1071.43 496.311L1070.89 496.625C1058.03 504.01 1046.08 509.001 1035.37 511.612C991.505 529.717 940.945 530.5 924.112 489.37C902.956 437.534 978.17 379.435 997.615 334.726C1024.09 274.048 987.37 214.098 1006.05 151.873C1019.39 107.354 1071.12 78.4989 1092.28 81.551C1094.83 81.8974 1097.45 82.4978 1099.99 83.1785C1101.57 83.2379 1103.07 83.3776 1104.65 83.6042C1126.34 86.676 1149.7 100.521 1172.32 123.71C1194.6 146.385 1214.87 177.268 1228.14 208.475ZM1112.33 428.475C1123.38 407.216 1134.81 385.303 1156.23 367.361C1164.28 360.634 1173.28 354.528 1182.01 348.663C1205.55 332.726 1227.82 317.578 1234.35 290.293C1243.99 249.986 1213.08 175.778 1166.91 128.445C1145.48 106.471 1123.59 93.4343 1103.65 90.5957C1082.31 87.5371 1065.66 105.657 1054.07 144.133C1046.07 170.777 1042.52 198.676 1039.18 225.746C1034.58 261.806 1029.93 299.036 1014.69 334.111C1009.12 346.872 1001.54 359.307 994.147 371.247C975.104 402.08 957.19 431.282 971.776 466.973C976.347 478.106 981.89 487.099 988.073 493.439C1005.86 511.678 1031.69 510.805 1066.98 490.705C1089.37 472.717 1101.09 450.228 1112.33 428.475Z" fill="#FAB980"/>
<path d="M338.169 -90.8924C340.166 -87.818 341.664 -84.3889 342.787 -80.7233C349.778 -57.5471 342.537 -30.2324 323.064 -5.87382C300.345 22.5051 265.893 40.9514 235.311 40.9514C232.065 40.9514 228.695 40.7149 225.574 40.3602C212.093 38.5865 201.358 31.9648 193.494 20.6132C177.891 -2.08995 177.517 -40.7563 185.007 -65.7061C189.376 -80.132 202.233 -93.2573 221.207 -102.599C238.433 -111.112 259.653 -115.96 279.501 -115.96C306.838 -115.842 328.308 -106.737 338.169 -90.8924ZM192.247 -63.8141C186.13 -43.8307 184.507 -5.63734 199.86 16.7111C206.476 26.289 215.463 31.8465 226.698 33.2655C229.569 33.6202 232.44 33.8567 235.436 33.8567C263.771 33.8567 295.977 16.5928 317.197 -10.1307C335.173 -32.7156 341.914 -57.7836 335.672 -78.8313C334.799 -81.9057 333.425 -84.7436 331.803 -87.345C323.19 -101.062 304.216 -108.866 279.501 -108.866C244.05 -108.747 200.61 -91.6019 192.247 -63.8141Z" fill="#FAB980"/>
<path d="M866.603 83.2501C863.543 88.2705 857.329 94.0206 845.342 92.8197C834.126 91.7058 817.563 84.098 809.907 76.5637C798.851 65.7195 801.458 44.0513 810.331 29.4921C816.655 19.1166 825.539 13.0421 834.724 13.0449C836.508 13.0165 838.367 13.252 840.212 13.7032C849.891 15.985 858.869 25.0229 864.879 38.3505C871 52.0741 873.896 71.2848 866.603 83.2501ZM838.718 19.2455C837.366 18.9522 836.051 18.7909 834.773 18.7615C827.777 18.8399 820.884 23.7722 815.631 32.3906C805.839 48.4559 807.352 65.6834 814.316 72.6156C820.851 79.0906 836.265 86.0703 846.027 87.0582C853.02 87.7588 858.141 85.5393 861.303 80.3516C866.658 71.5659 865.773 55.2398 859.214 40.4957C854.043 29.0771 846.414 21.1115 838.718 19.2455Z" fill="#FAB980"/>
</g>
</svg>
