<svg width="772" height="696" viewBox="0 0 772 696" fill="none" xmlns="http://www.w3.org/2000/svg">
<g opacity="0.03">
<path d="M0.0681201 84.5193L0.0681428 82.0047C39.9678 114.757 69.3742 188.371 75.3885 270.786C76.9923 293.102 85.8811 307.498 101.119 312.465C112.347 316.111 126.449 314.602 141.955 308.001C157.394 301.401 172.766 290.462 186.4 276.318C191.613 270.911 198.23 264.751 205.314 258.213C238.13 227.85 282.976 186.233 262.392 149.332C251.097 129.153 229.777 125.381 207.254 121.421C184.396 117.397 160.737 113.248 149.376 90.3028C145.967 83.3877 143.561 75.404 142.158 66.3516H146.235C147.571 74.8382 149.843 82.2562 153.051 88.7312C163.544 109.916 185.198 113.751 208.056 117.774C230.579 121.735 253.837 125.821 266.001 147.635C282.041 176.427 261.79 206.979 236.526 233.507C218.681 254.567 196.358 273.866 183.326 288.073C138.546 336.982 70.9099 352.069 62.4894 287.13C54.1357 223.198 30.8779 164.923 0.13456 128.147L0.0681201 84.5193Z" fill="#6A6AA4"/>
<path d="M727.29 197.741C728.426 205.096 730.832 212.765 733.372 220.875C737.716 234.768 742.127 248.975 740.656 262.742C741.926 275.001 740.924 287.071 734.441 298.135C726.688 311.336 707.907 315.674 694.073 310.205C650.698 293.043 648.426 231.624 598.969 223.138H598.902C578.25 217.857 554.657 228.796 539.219 240.803C513.086 261.233 491.565 298.449 487.154 332.081C487.221 333.59 487.221 335.162 487.288 336.67C487.689 350.123 488.089 365.022 487.02 379.795C486.886 404.941 484.279 431.092 471.113 451.083C450.394 482.641 397.194 473.84 406.618 444.168C405.482 442.785 404.479 441.276 403.811 439.705C401.071 433.544 400.469 423.046 413.502 408.461C427.604 392.619 433.954 377.846 433.62 362.005C433.286 348.049 427.739 332.961 415.709 313.096C405.015 295.494 389.243 278.584 372.467 260.731C346.67 233.133 319.936 204.53 312.384 172.218C307.773 152.416 308.441 129.722 314.457 104.702C317.398 92.4433 321.608 79.5562 327.089 66.229H331.366C325.685 79.8705 321.341 93.0091 318.333 105.519C312.451 129.973 311.783 152.164 316.261 171.401C323.612 202.77 349.944 230.996 375.475 258.279C392.317 276.321 408.29 293.357 419.184 311.273C431.615 331.704 437.296 347.357 437.63 361.942C438.031 378.789 431.347 394.317 416.576 410.913C407.286 421.348 404.212 430.778 407.554 438.259C410.561 444.922 418.514 449.386 428.94 450.14C440.77 451.02 458.08 446.557 468.172 431.281C485.349 405.192 484.213 367.222 483.344 336.733C483.278 333.59 483.144 330.51 483.077 327.492C482.209 291.031 505.267 244.952 536.679 220.435C552.452 208.113 576.847 196.923 598.167 202.393H598.234C619.554 208.05 633.923 228.858 647.757 249.038C657.782 263.559 667.206 277.264 678.835 285.185C689.929 292.791 701.491 295.809 711.316 293.734C719.604 291.974 726.354 286.819 731.366 278.333C741.726 260.793 735.51 240.991 729.562 221.881C726.956 213.645 724.55 205.85 723.347 198.244C719.939 176.367 722.545 150.593 730.633 125.698C738.319 102.187 750.55 81.3793 765.454 66.2919H771.001C755.362 81.1278 742.462 102.502 734.509 126.83C726.622 150.844 724.016 176.681 727.29 197.741Z" fill="#6A6AA4"/>
<path d="M59.7489 356.737C78.7963 391.124 96.7744 423.687 118.228 434.814C131.461 441.666 142.823 442.986 152.982 438.9C180.317 427.71 193.617 378.111 205.381 334.357C214.203 301.354 221.889 272.876 234.32 261.498C249.225 247.856 265.131 242.513 281.572 245.593C328.623 254.331 366.317 328.511 376.743 351.079C393.318 386.849 390.577 412.434 367.051 442.546C364.111 446.318 360.635 450.279 356.959 454.491C340.852 472.973 320.869 496.044 330.092 519.869C337.309 538.54 332.831 557.839 317.125 575.63C303.959 590.466 283.307 603.604 260.449 611.588C252.162 614.48 243.54 616.994 235.186 619.446C204.175 628.498 174.902 637.111 156.255 664.394C150.239 673.195 144.291 683.693 139.011 695.134H134.667C140.214 682.876 146.497 671.686 152.913 662.319C172.362 633.905 203.707 624.727 234.05 615.8C242.337 613.348 250.892 610.896 259.113 608.005C281.369 600.272 301.419 587.574 314.118 573.178C324.41 561.548 334.903 543.066 326.416 521.127C316.391 495.289 337.176 471.338 353.952 452.102C357.561 447.953 360.97 443.992 363.91 440.283C386.434 411.492 389.04 386.912 373.134 352.588C367.186 339.764 354.621 314.869 337.245 292.113C318.064 267.093 299.083 252.697 280.904 249.302C265.799 246.536 251.096 251.502 237.194 264.201C225.565 274.825 217.678 304.245 209.324 335.3C197.36 379.934 183.792 430.476 154.653 442.358C143.424 446.947 130.592 445.501 116.357 438.146C93.8336 426.453 75.5882 393.449 56.2735 358.497C39.0305 327.316 21.3198 295.381 0.133542 278.031L0.133587 273.128C23.0575 290.415 41.6372 323.922 59.7489 356.737Z" fill="#6A6AA4"/>
<path d="M36.1596 427.883C46.9197 448.314 57.1451 467.613 70.6455 476.854C91.765 491.313 115.959 496.971 138.816 492.759C162.141 488.484 182.86 474.214 197.029 452.651C202.71 443.976 208.191 427.066 214.005 409.087C225.635 373.128 238.802 332.392 261.659 326.986C269.144 325.226 275.895 326.043 281.709 329.438C297.281 338.49 303.229 364.076 307.974 384.57C310.046 393.433 311.784 401.103 313.989 405.818C325.819 431.34 323.814 449.634 307.038 471.133C304.498 474.34 301.691 477.483 298.684 480.877C290.864 489.615 282.71 498.605 280.371 508.978C279.235 514.07 280.237 518.91 281.306 524.065C282.576 530.226 283.913 536.638 281.173 543.176C270.479 569.201 231.915 578.757 200.904 586.426C192.283 588.564 184.129 590.575 177.579 592.713C134.939 606.668 76.5925 625.716 48.7223 666.452C43.3086 674.373 38.0286 684.18 33.6174 694.867H29.3401C33.9518 683.363 39.566 672.802 45.3806 664.378C73.986 622.573 133.134 603.211 176.309 589.129C183.06 586.929 191.28 584.917 199.969 582.717C230.111 575.236 267.605 565.995 277.563 541.73C279.836 536.135 278.7 530.603 277.497 524.694C276.428 519.413 275.291 513.881 276.561 508.098C279.101 496.782 287.522 487.415 295.676 478.363C298.617 475.094 301.424 471.951 303.83 468.87C319.67 448.628 321.475 431.403 310.313 407.264C307.974 402.234 306.17 394.376 304.031 385.324C299.42 365.459 293.672 340.816 279.57 332.581C274.625 329.689 269.144 329.061 262.595 330.569C241.876 335.473 228.509 376.837 217.815 410.155C211.666 429.14 206.386 445.548 200.438 454.6C185.6 477.043 164.013 491.941 139.551 496.405C115.558 500.805 90.2946 494.959 68.2395 479.872C53.9371 470.065 43.5111 450.388 32.5505 429.517C22.8597 411.098 12.9016 392.302 0.00273504 380.232L0.00278268 374.951C14.773 387.336 25.6 407.829 36.1596 427.883Z" fill="#6A6AA4"/>
<path d="M29.0101 494.147L31.0151 495.718C56.4788 515.269 85.2841 537.397 119.904 527.15C128.459 524.636 136.813 520.424 144.833 516.401C162.545 507.537 180.857 498.359 202.979 506.028C216.413 510.68 219.955 517.281 220.623 522.058C221.626 529.728 215.878 538.026 204.449 545.318C187.139 556.382 166.42 561.349 146.37 566.126C136.679 568.452 126.654 570.841 117.364 573.859C79.9369 586.117 30.4126 602.273 0.00284909 633.642L0.00289843 628.173C31.2147 598.124 79.4022 582.345 116.027 570.338C125.518 567.258 135.61 564.806 145.368 562.48C165.084 557.765 185.401 552.862 202.177 542.175C212.135 535.763 217.415 528.596 216.613 522.498C215.945 517.218 210.732 512.754 201.576 509.548C181.124 502.445 164.416 510.869 146.705 519.732C138.484 523.819 129.996 528.093 121.107 530.734H121.04C84.3483 541.546 54.6742 518.727 28.4086 498.61L26.4036 497.038C25.7352 496.536 24.7996 495.781 23.6634 494.901C15.0418 488.175 7.15546 482.328 0.00425834 477.425L0.00430088 472.71C9.16051 478.871 18.3167 485.786 26.2699 492.009C27.406 492.952 28.3418 493.644 29.0101 494.147Z" fill="#6A6AA4"/>
<path d="M657.569 327.861C664.974 345.22 667.528 360.974 664.832 372.218C660.99 388.224 647.897 397.034 635.197 405.504C630.669 408.583 625.899 411.786 621.734 415.235C610.855 424.261 605.197 435.083 599.181 446.56C592.908 458.516 586.476 470.866 573.663 480.888L573.373 481.055C566.491 484.981 560.09 487.635 554.356 489.023C530.87 498.648 503.8 499.065 494.787 477.198C483.46 449.64 523.731 418.752 534.142 394.983C548.316 362.723 528.657 330.851 538.656 297.769C545.799 274.101 573.498 258.761 584.828 260.383C586.192 260.567 587.597 260.887 588.954 261.249C589.804 261.28 590.604 261.354 591.451 261.475C603.064 263.108 615.572 270.469 627.681 282.797C639.613 294.852 650.463 311.271 657.569 327.861ZM595.565 444.824C601.479 433.521 607.597 421.871 619.065 412.333C623.378 408.756 628.197 405.51 632.868 402.392C645.474 393.919 657.4 385.866 660.895 371.36C666.053 349.931 649.503 310.479 624.785 285.314C613.31 273.632 601.589 266.701 590.916 265.192C579.491 263.566 570.573 273.199 564.368 293.654C560.084 307.82 558.183 322.652 556.395 337.044C553.934 356.215 551.446 376.008 543.284 394.655C540.303 401.44 536.241 408.051 532.285 414.399C522.089 430.791 512.497 446.316 520.307 465.291C522.754 471.209 525.722 475.991 529.033 479.362C538.557 489.058 552.387 488.594 571.282 477.908C583.272 468.344 589.545 456.389 595.565 444.824Z" fill="#6A6AA4"/>
<path d="M181.062 168.704C182.131 170.339 182.933 172.162 183.535 174.111C187.277 186.432 183.401 200.954 172.975 213.904C160.811 228.991 142.364 238.798 125.99 238.798C124.252 238.798 122.448 238.673 120.777 238.484C113.559 237.541 107.811 234.021 103.6 227.986C95.2462 215.916 95.0458 195.359 99.056 182.094C101.395 174.425 108.279 167.447 118.438 162.481C127.661 157.954 139.023 155.377 149.65 155.377C164.287 155.44 175.782 160.28 181.062 168.704ZM102.932 183.1C99.6575 193.724 98.7884 214.03 107.009 225.911C110.551 231.003 115.363 233.958 121.378 234.712C122.915 234.901 124.453 235.026 126.057 235.026C141.228 235.026 158.471 225.848 169.833 211.641C179.458 199.634 183.067 186.306 179.725 175.116C179.257 173.482 178.522 171.973 177.653 170.59C173.042 163.298 162.883 159.149 149.65 159.149C130.669 159.212 107.41 168.327 102.932 183.1Z" fill="#6A6AA4"/>
<path d="M404.935 163.34C404.352 161.501 404.079 159.545 404.034 157.516C403.809 144.704 411.55 131.62 425.184 121.65C441.085 110.037 461.601 105.055 477.418 109.042C479.096 109.465 480.805 110.025 482.367 110.614C489.079 113.282 493.663 118.082 496.069 124.937C500.817 138.629 495.354 158.534 487.831 170.37C483.461 177.209 474.891 182.273 463.712 184.597C453.558 186.724 441.874 186.448 431.609 183.861C417.489 180.237 407.717 172.763 404.935 163.34ZM484.363 168.455C490.45 158.99 496.877 139.588 492.206 126.111C490.185 120.33 486.35 116.304 480.748 114.111C479.315 113.555 477.865 113.059 476.315 112.669C461.661 108.975 442.48 113.643 427.595 124.6C414.995 133.855 407.842 145.85 407.99 157.472C407.992 159.165 408.288 160.801 408.746 162.349C411.194 170.515 419.865 176.996 432.647 180.217C450.999 184.778 475.973 181.635 484.363 168.455Z" fill="#6A6AA4"/>
<path d="M463.995 261.286C462.357 263.955 459.03 267.012 452.611 266.374C446.606 265.782 437.738 261.737 433.639 257.731C427.719 251.966 429.115 240.446 433.866 232.706C437.252 227.19 442.009 223.961 446.927 223.962C447.882 223.947 448.877 224.072 449.865 224.312C455.047 225.525 459.854 230.33 463.072 237.416C466.35 244.712 467.9 254.925 463.995 261.286ZM449.065 227.259C448.341 227.103 447.637 227.017 446.953 227.001C443.207 227.043 439.516 229.665 436.704 234.247C431.461 242.788 432.271 251.947 435.999 255.632C439.499 259.075 447.751 262.786 452.978 263.311C456.722 263.683 459.464 262.503 461.157 259.745C464.024 255.074 463.551 246.395 460.039 238.556C457.27 232.485 453.185 228.251 449.065 227.259Z" fill="#6A6AA4"/>
<path d="M589.272 50.0994C571.494 47.8991 552.914 23.8217 545.763 13.5747C542.421 8.73405 539.347 3.89344 536.606 -0.947182L541.151 -0.947182C543.557 3.20192 546.231 7.41389 549.104 11.5001C563.407 31.9313 578.578 45.0073 589.807 46.3903C598.829 47.5219 605.246 40.7953 608.855 26.3992C610.86 18.4782 609.857 8.79692 607.719 -0.947187L611.796 -0.947188C613.934 8.98552 614.803 18.9182 612.731 27.2793C609.924 38.6579 603.508 51.8596 589.272 50.0994Z" fill="#6A6AA4"/>
<path d="M637.457 195.372C626.496 195.624 615.602 191.286 603.973 182.171C585.794 167.838 575.301 146.967 565.143 126.851C564.541 125.593 563.94 124.399 563.271 123.204C541.083 79.2625 520.097 43.5557 489.755 12.2494C488.418 10.8663 486.948 9.29472 485.277 7.5974C482.871 5.08282 480.131 2.19109 477.123 -0.889252L482.537 -0.889252C484.609 1.24812 486.48 3.25976 488.218 5.08282C489.822 6.78017 491.359 8.35177 492.629 9.73479C523.305 41.4183 544.425 77.3766 566.814 121.633C567.415 122.827 568.017 124.085 568.685 125.342C578.643 145.144 588.935 165.575 606.446 179.405C617.273 187.892 627.365 191.978 637.256 191.726C650.222 191.475 661.183 188.269 668.936 182.485C677.357 176.199 681.567 167.335 681.3 156.082C680.899 136.154 671.476 118.112 662.32 100.636C653.231 83.2229 643.874 65.3066 642.872 45.0015C642.07 27.8396 644.476 11.9979 649.689 -0.889266L653.966 -0.889266C648.62 11.6835 646.08 27.5253 646.882 44.8129C647.817 64.3008 657.04 81.9028 665.929 98.9389C675.219 116.729 684.843 135.149 685.31 155.957C685.912 179.594 667.532 194.744 637.457 195.372Z" fill="#6A6AA4"/>
</g>
</svg>
