<svg width="154" height="55" viewBox="0 0 154 55" fill="none" xmlns="http://www.w3.org/2000/svg">
    <rect y="-0.000488281" width="153.586" height="54.9577" rx="10" fill="#010101"/>
    <path d="M57.6191 16.1808C57.6191 16.9543 57.3114 17.6312 56.9013 18.1146C56.286 18.6948 55.5682 18.9849 54.6452 18.9849C53.7223 18.9849 53.0045 18.6948 52.3892 18.1146C51.7739 17.5345 51.4663 16.8576 51.4663 15.9874C51.4663 15.1172 51.7739 14.4403 52.3892 13.8602C53.0045 13.28 53.7223 12.9899 54.6452 12.9899C55.0554 12.9899 55.4656 13.0866 55.8758 13.28C56.286 13.4734 56.5936 13.6668 56.7987 13.9569L56.286 14.4403C55.8758 13.9569 55.3631 13.7635 54.5427 13.7635C53.9274 13.7635 53.3121 13.9569 52.902 14.4403C52.3892 14.8271 52.1841 15.4072 52.1841 16.0841C52.1841 16.7609 52.3892 17.3411 52.902 17.7279C53.4147 18.1146 53.9274 18.4047 54.5427 18.4047C55.2605 18.4047 55.7732 18.2113 56.286 17.7279C56.5936 17.4378 56.7987 17.051 56.7987 16.5676H54.5427V15.8907H57.5165C57.6191 15.8907 57.6191 16.0841 57.6191 16.1808Z" fill="#A4A4A4"/>
    <path d="M62.4387 13.7625H59.67V15.5997H62.2336V16.2765H59.67V18.1137H62.4387V18.7905H58.8496V13.0857H62.4387V13.7625Z" fill="#A4A4A4"/>
    <path d="M65.7194 18.7905H64.899V13.7625H63.2583V13.0857H67.4627V13.7625H65.7194V18.7905Z" fill="#A4A4A4"/>
    <path d="M70.5439 18.7905V13.0857H71.3643V18.7905H70.5439Z" fill="#A4A4A4"/>
    <path d="M74.8498 18.7905H74.0294V13.7625H72.2861V13.0857H76.5931V13.7625H74.8498V18.7905Z" fill="#A4A4A4"/>
    <path d="M84.5931 18.1146C83.9779 18.6948 83.26 18.9849 82.3371 18.9849C81.4142 18.9849 80.6964 18.6948 80.0811 18.1146C79.4658 17.5345 79.1582 16.8576 79.1582 15.9874C79.1582 15.1172 79.4658 14.4403 80.0811 13.8602C80.6964 13.28 81.4142 12.9899 82.3371 12.9899C83.26 12.9899 83.9779 13.28 84.5931 13.8602C85.2084 14.4403 85.5161 15.1172 85.5161 15.9874C85.5161 16.7609 85.2084 17.5345 84.5931 18.1146ZM80.5939 17.6312C81.004 18.0179 81.6193 18.308 82.2346 18.308C82.8499 18.308 83.4651 18.1146 83.8753 17.6312C84.2855 17.2444 84.5931 16.6642 84.5931 15.9874C84.5931 15.3106 84.3881 14.7304 83.8753 14.3436C83.4651 13.9569 82.8499 13.6668 82.2346 13.6668C81.6193 13.6668 81.004 13.8602 80.5939 14.3436C80.1837 14.7304 79.876 15.3106 79.876 15.9874C79.9786 16.6642 80.1837 17.1477 80.5939 17.6312Z" fill="#A4A4A4"/>
    <path d="M86.6421 18.7905V13.0857H87.565L90.5388 17.5335V16.4699V13.0857H91.3592V18.7905H90.5388L87.3599 14.1493V15.2129V18.7905H86.6421Z" fill="#A4A4A4"/>
    <path d="M79.1245 29.0604C76.6124 29.0604 74.6237 30.9648 74.6237 33.504C74.6237 36.0433 76.6124 37.9477 79.1245 37.9477C81.6367 37.9477 83.6254 36.0433 83.6254 33.504C83.6254 30.9648 81.6367 29.0604 79.1245 29.0604ZM79.1245 36.2549C77.7638 36.2549 76.6124 35.091 76.6124 33.504C76.6124 31.917 77.7638 30.7532 79.1245 30.7532C80.4853 30.7532 81.6367 31.8112 81.6367 33.504C81.6367 35.091 80.4853 36.2549 79.1245 36.2549ZM69.3901 29.0604C66.878 29.0604 64.8892 30.9648 64.8892 33.504C64.8892 36.0433 66.878 37.9477 69.3901 37.9477C71.9022 37.9477 73.891 36.0433 73.891 33.504C73.7863 30.9648 71.7976 29.0604 69.3901 29.0604ZM69.3901 36.2549C68.0294 36.2549 66.878 35.091 66.878 33.504C66.878 31.917 68.0294 30.7532 69.3901 30.7532C70.7508 30.7532 71.9022 31.8112 71.9022 33.504C71.9022 35.091 70.7508 36.2549 69.3901 36.2549ZM57.7716 30.4358V32.3402H62.2725C62.1678 33.3982 61.7491 34.1388 61.2257 34.6678C60.5977 35.3026 59.551 36.0433 57.7716 36.0433C54.9455 36.0433 52.852 33.8214 52.852 30.9648C52.852 28.1082 55.0501 25.8864 57.7716 25.8864C59.237 25.8864 60.3884 26.5212 61.2257 27.2618L62.5865 25.8864C61.4351 24.8283 59.9697 23.9819 57.8763 23.9819C54.0034 23.9819 50.8633 27.0502 50.8633 30.859C50.8633 34.6678 54.1081 37.7361 57.8763 37.7361C59.9697 37.7361 61.5398 37.1013 62.6911 35.8317C63.9472 34.562 64.3659 32.8692 64.3659 31.388C64.3659 30.9648 64.3659 30.5416 64.2612 30.2242C64.0519 30.4358 57.7716 30.4358 57.7716 30.4358ZM105.292 31.917C104.874 30.9648 103.827 29.0604 101.42 29.0604C99.1168 29.0604 97.2327 30.859 97.2327 33.504C97.2327 36.0433 99.1168 37.9477 101.629 37.9477C103.722 37.9477 104.874 36.6781 105.397 35.9375L103.827 34.8794C103.304 35.62 102.676 36.1491 101.629 36.1491C100.687 36.1491 99.9541 35.7259 99.4308 34.7736L105.397 32.3402C105.502 32.446 105.292 31.917 105.292 31.917ZM99.2214 33.3982C99.2214 31.7054 100.582 30.7532 101.524 30.7532C102.257 30.7532 102.99 31.1764 103.199 31.7054L99.2214 33.3982ZM94.3019 37.7361H96.2906V24.6167H94.3019V37.7361ZM91.1618 30.0126C90.6384 29.4836 89.801 29.0604 88.7543 29.0604C86.5562 29.0604 84.4628 31.0706 84.4628 33.504C84.4628 36.0433 86.5562 37.9477 88.7543 37.9477C89.801 37.9477 90.6384 37.5245 91.0571 36.8897H91.1618V37.5245C91.1618 39.2173 90.2197 40.1695 88.7543 40.1695C87.6029 40.1695 86.7656 39.3231 86.5562 38.5825L84.8815 39.3231C85.4048 40.4869 86.6609 41.9681 88.859 41.9681C91.1617 41.9681 93.1505 40.5927 93.1505 37.3129V29.272H91.2664L91.1618 30.0126ZM88.859 36.2549C87.4982 36.2549 86.3469 35.091 86.3469 33.6098C86.3469 32.0228 87.4982 30.859 88.859 30.859C90.2197 30.859 91.2664 32.0228 91.2664 33.6098C91.2664 35.091 90.2197 36.2549 88.859 36.2549ZM114.399 24.6167H109.689V37.7361H111.677V32.7634H114.399C116.597 32.7634 118.69 31.1764 118.69 28.743C118.795 26.2038 116.597 24.6167 114.399 24.6167ZM114.503 30.9648H111.677V26.4154H114.503C115.969 26.4154 116.806 27.5792 116.806 28.6372C116.806 29.6952 115.969 30.9648 114.503 30.9648ZM126.645 29.0604C125.18 29.0604 123.715 29.6952 123.191 31.0706L124.971 31.8112C125.389 31.0706 126.017 30.859 126.75 30.859C127.797 30.859 128.843 31.4938 128.843 32.5518V32.6576C128.529 32.446 127.692 32.1286 126.75 32.1286C124.866 32.1286 122.982 33.1866 122.982 35.091C122.982 36.8897 124.552 37.9477 126.227 37.9477C127.587 37.9477 128.32 37.3129 128.739 36.6781H128.843V37.7361H130.728V32.6576C130.623 30.33 128.843 29.0604 126.645 29.0604ZM126.331 36.2549C125.703 36.2549 124.761 35.9375 124.761 35.1968C124.761 34.1388 125.913 33.8214 126.855 33.8214C127.692 33.8214 128.111 34.033 128.634 34.2446C128.529 35.4084 127.483 36.2549 126.331 36.2549ZM137.426 29.3778L135.228 35.091H135.124L132.821 29.3778H130.728L134.182 37.3129L132.193 41.7565H134.286L139.625 29.3778H137.426ZM119.842 37.7361H121.83V24.6167H119.842V37.7361Z" fill="white"/>
    <path d="M14.544 13.3638C14.195 13.7058 13.9624 14.2758 13.9624 14.9599V39.9272C13.9624 40.6112 14.195 41.1813 14.544 41.5233L14.6603 41.6373L29.0837 27.6145V27.2725L14.544 13.3638Z" fill="white"/>
    <path d="M33.853 32.2916L29.084 27.6173V27.2753L33.853 22.6011L33.9693 22.7151L39.6689 25.9073C41.2973 26.8193 41.2973 28.3014 39.6689 29.2134L33.853 32.2916C33.9693 32.2916 33.853 32.2916 33.853 32.2916Z" fill="white"/>
    <path d="M33.9695 32.2897L29.0841 27.5015L14.5444 41.5242C15.126 42.0942 15.9402 42.0942 16.9871 41.6382L33.9695 32.2897Z" fill="white"/>
    <path d="M33.9695 22.713L16.9871 13.3645C15.9402 12.7945 15.126 12.9085 14.5444 13.4785L29.0841 27.5013L33.9695 22.713Z" fill="white"/>
</svg>
