<svg width="118" height="40" viewBox="0 0 118 40" fill="none" xmlns="http://www.w3.org/2000/svg">
<rect width="118" height="40" rx="4" fill="white"/>
<path d="M46.8476 12.077C46.8476 12.5806 46.6552 13.0211 46.3987 13.3359C46.014 13.7135 45.5651 13.9023 44.9879 13.9023C44.4108 13.9023 43.9619 13.7135 43.5771 13.3359C43.1924 12.9582 43 12.5176 43 11.9511C43 11.3846 43.1924 10.944 43.5771 10.5664C43.9619 10.1887 44.4108 9.9999 44.9879 9.9999C45.2444 9.9999 45.5009 10.0628 45.7575 10.1887C46.014 10.3146 46.2063 10.4405 46.3346 10.6293L46.014 10.944C45.7575 10.6293 45.4368 10.5034 44.9238 10.5034C44.539 10.5034 44.1543 10.6293 43.8978 10.944C43.5771 11.1958 43.4489 11.5735 43.4489 12.0141C43.4489 12.4547 43.5771 12.8323 43.8978 13.0841C44.2184 13.3359 44.539 13.5247 44.9238 13.5247C45.3727 13.5247 45.6933 13.3988 46.014 13.0841C46.2063 12.8953 46.3346 12.6435 46.3346 12.3288H44.9238V11.8882H46.7835C46.8476 11.8882 46.8476 12.0141 46.8476 12.077Z" fill="#575A65"/>
<path d="M49.8616 10.5034H48.1302V11.6993H49.7334V12.1399H48.1302V13.3358H49.8616V13.7764H47.6172V10.0628H49.8616V10.5034Z" fill="#575A65"/>
<path d="M51.9131 13.7764H51.4001V10.5034H50.374V10.0628H53.0032V10.5034H51.9131V13.7764Z" fill="#575A65"/>
<path d="M54.9307 13.7764V10.0628H55.4437V13.7764H54.9307Z" fill="#575A65"/>
<path d="M57.6227 13.7764H57.1097V10.5034H56.0195V10.0628H58.7129V10.5034H57.6227V13.7764Z" fill="#575A65"/>
<path d="M63.7151 13.3359C63.3304 13.7135 62.8815 13.9023 62.3043 13.9023C61.7272 13.9023 61.2783 13.7135 60.8935 13.3359C60.5088 12.9582 60.3164 12.5176 60.3164 11.9511C60.3164 11.3846 60.5088 10.944 60.8935 10.5664C61.2783 10.1887 61.7272 9.9999 62.3043 9.9999C62.8815 9.9999 63.3304 10.1887 63.7151 10.5664C64.0999 10.944 64.2923 11.3846 64.2923 11.9511C64.2923 12.4547 64.0999 12.9582 63.7151 13.3359ZM61.2142 13.0211C61.4707 13.2729 61.8555 13.4617 62.2402 13.4617C62.625 13.4617 63.0097 13.3359 63.2662 13.0211C63.5227 12.7694 63.7151 12.3917 63.7151 11.9511C63.7151 11.5105 63.5869 11.1329 63.2662 10.8811C63.0097 10.6293 62.625 10.4405 62.2402 10.4405C61.8555 10.4405 61.4707 10.5664 61.2142 10.8811C60.9577 11.1329 60.7653 11.5105 60.7653 11.9511C60.8294 12.3917 60.9577 12.7064 61.2142 13.0211Z" fill="#575A65"/>
<path d="M64.9971 13.7764V10.0628H65.5742L67.4339 12.9581V12.2657V10.0628H67.9469V13.7764H67.4339L65.446 10.7551V11.4475V13.7764H64.9971Z" fill="#575A65"/>
<path d="M62.3508 21.248C60.6629 21.248 59.3267 22.5393 59.3267 24.2609C59.3267 25.9826 60.6629 27.2738 62.3508 27.2738C64.0387 27.2738 65.3749 25.9826 65.3749 24.2609C65.3749 22.5393 64.0387 21.248 62.3508 21.248ZM62.3508 26.1261C61.4365 26.1261 60.6629 25.337 60.6629 24.2609C60.6629 23.1849 61.4365 22.3958 62.3508 22.3958C63.2651 22.3958 64.0387 23.1132 64.0387 24.2609C64.0387 25.337 63.2651 26.1261 62.3508 26.1261ZM55.8103 21.248C54.1225 21.248 52.7862 22.5393 52.7862 24.2609C52.7862 25.9826 54.1225 27.2738 55.8103 27.2738C57.4982 27.2738 58.8344 25.9826 58.8344 24.2609C58.7641 22.5393 57.4279 21.248 55.8103 21.248ZM55.8103 26.1261C54.8961 26.1261 54.1224 25.337 54.1224 24.2609C54.1224 23.1849 54.8961 22.3958 55.8103 22.3958C56.7246 22.3958 57.4982 23.1132 57.4982 24.2609C57.4982 25.337 56.7246 26.1261 55.8103 26.1261ZM48.0039 22.1806V23.4718H51.028C50.9577 24.1892 50.6764 24.6913 50.3248 25.05C49.9028 25.4804 49.1995 25.9826 48.0039 25.9826C46.1051 25.9826 44.6985 24.4761 44.6985 22.5393C44.6985 20.6024 46.1754 19.0959 48.0039 19.0959C48.9885 19.0959 49.7621 19.5264 50.3248 20.0285L51.239 19.0959C50.4654 18.3786 49.4808 17.8047 48.0743 17.8047C45.4721 17.8047 43.3623 19.885 43.3623 22.4675C43.3623 25.05 45.5425 27.1304 48.0743 27.1304C49.4808 27.1304 50.5357 26.7 51.3093 25.8391C52.1533 24.9783 52.4346 23.8305 52.4346 22.8262C52.4346 22.5393 52.4346 22.2523 52.3643 22.0371C52.2236 22.1806 48.0039 22.1806 48.0039 22.1806ZM79.9327 23.1849C79.6514 22.5393 78.9481 21.248 77.3306 21.248C75.7834 21.248 74.5175 22.4675 74.5175 24.2609C74.5175 25.9826 75.7834 27.2738 77.4713 27.2738C78.8778 27.2738 79.6514 26.413 80.0031 25.9109L78.9481 25.1935C78.5965 25.6957 78.1745 26.0543 77.4713 26.0543C76.8383 26.0543 76.346 25.7674 75.9944 25.1218L80.0031 23.4718C80.0734 23.5436 79.9327 23.1849 79.9327 23.1849ZM75.8537 24.1892C75.8537 23.0414 76.768 22.3958 77.4009 22.3958C77.8932 22.3958 78.3855 22.6827 78.5262 23.0414L75.8537 24.1892ZM72.5483 27.1304H73.8845V18.2351H72.5483V27.1304ZM70.4385 21.8936C70.0869 21.535 69.5242 21.248 68.821 21.248C67.3441 21.248 65.9375 22.611 65.9375 24.2609C65.9375 25.9826 67.3441 27.2738 68.821 27.2738C69.5242 27.2738 70.0868 26.9869 70.3682 26.5565H70.4385V26.9869C70.4385 28.1347 69.8055 28.7803 68.821 28.7803C68.0473 28.7803 67.4847 28.2064 67.3441 27.7043L66.2188 28.2064C66.5705 28.9955 67.4144 29.9998 68.8913 29.9998C70.4385 29.9998 71.7747 29.0672 71.7747 26.8434V21.3915H70.5088L70.4385 21.8936ZM68.8913 26.1261C67.977 26.1261 67.2034 25.337 67.2034 24.3327C67.2034 23.2566 67.977 22.4675 68.8913 22.4675C69.8055 22.4675 70.5088 23.2566 70.5088 24.3327C70.5088 25.337 69.8055 26.1261 68.8913 26.1261ZM86.0513 18.2351H82.8865V27.1304H84.2227V23.7588H86.0513C87.5281 23.7588 88.9347 22.6827 88.9347 21.0328C89.005 19.3111 87.5281 18.2351 86.0513 18.2351ZM86.1216 22.5393H84.2227V19.4546H86.1216C87.1062 19.4546 87.6688 20.2437 87.6688 20.9611C87.6688 21.6784 87.1062 22.5393 86.1216 22.5393ZM94.2796 21.248C93.295 21.248 92.3104 21.6784 91.9588 22.611L93.1544 23.1132C93.4357 22.611 93.8576 22.4675 94.3499 22.4675C95.0532 22.4675 95.7565 22.8979 95.7565 23.6153V23.687C95.5455 23.5436 94.9829 23.3284 94.3499 23.3284C93.084 23.3284 91.8181 24.0457 91.8181 25.337C91.8181 26.5565 92.873 27.2738 93.9983 27.2738C94.9125 27.2738 95.4048 26.8434 95.6861 26.413H95.7565V27.1304H97.0224V23.687C96.9521 22.1089 95.7565 21.248 94.2796 21.248ZM94.0686 26.1261C93.6467 26.1261 93.0137 25.9109 93.0137 25.4087C93.0137 24.6913 93.7873 24.4761 94.4203 24.4761C94.9829 24.4761 95.2642 24.6196 95.6158 24.7631C95.5455 25.5522 94.8422 26.1261 94.0686 26.1261ZM101.523 21.4632L100.046 25.337H99.9761L98.4289 21.4632H97.0224L99.3432 26.8434L98.007 29.8563H99.4135L103 21.4632H101.523ZM89.7083 27.1304H91.0445V18.2351H89.7083V27.1304Z" fill="#575A65"/>
<path d="M15.3888 10.2578C15.1555 10.4939 15 10.8873 15 11.3595V28.5925C15 29.0646 15.1555 29.4581 15.3888 29.6942L15.4665 29.7728L25.1076 20.094V19.8579L15.3888 10.2578Z" fill="url(#paint0_linear)"/>
<path d="M28.2962 23.3205L25.1084 20.0942V19.8581L28.2962 16.6318L28.3739 16.7105L32.1837 18.9138C33.2723 19.5434 33.2723 20.5663 32.1837 21.1958L28.2962 23.3205C28.3739 23.3205 28.2962 23.3205 28.2962 23.3205Z" fill="url(#paint1_linear)"/>
<path d="M28.3731 23.3206L25.1076 20.0156L15.3887 29.6945C15.7774 30.0879 16.3217 30.0879 17.0214 29.7731L28.3731 23.3206Z" fill="url(#paint2_linear)"/>
<path d="M28.3731 16.7112L17.0214 10.2587C16.3217 9.86523 15.7774 9.94391 15.3887 10.3374L25.1076 20.0162L28.3731 16.7112Z" fill="url(#paint3_linear)"/>
<defs>
<linearGradient id="paint0_linear" x1="24.2371" y1="28.7664" x2="11.1539" y2="15.6865" gradientUnits="userSpaceOnUse">
<stop stop-color="#00A0FF"/>
<stop offset="0.0066" stop-color="#00A1FF"/>
<stop offset="0.2601" stop-color="#00BEFF"/>
<stop offset="0.5122" stop-color="#00D2FF"/>
<stop offset="0.7604" stop-color="#00DFFF"/>
<stop offset="1" stop-color="#00E3FF"/>
</linearGradient>
<linearGradient id="paint1_linear" x1="33.5954" y1="19.9761" x2="14.7369" y2="19.9761" gradientUnits="userSpaceOnUse">
<stop stop-color="#FFE000"/>
<stop offset="0.4087" stop-color="#FFBD00"/>
<stop offset="0.7754" stop-color="#FFA500"/>
<stop offset="1" stop-color="#FF9C00"/>
</linearGradient>
<linearGradient id="paint2_linear" x1="20.0831" y1="24.69" x2="2.3412" y2="6.95267" gradientUnits="userSpaceOnUse">
<stop stop-color="#FF3A44"/>
<stop offset="1" stop-color="#C31162"/>
</linearGradient>
<linearGradient id="paint3_linear" x1="6.45022" y1="28.9781" x2="14.3728" y2="21.0576" gradientUnits="userSpaceOnUse">
<stop stop-color="#32A071"/>
<stop offset="0.0685" stop-color="#2DA771"/>
<stop offset="0.4762" stop-color="#15CF74"/>
<stop offset="0.8009" stop-color="#06E775"/>
<stop offset="1" stop-color="#00F076"/>
</linearGradient>
</defs>
</svg>
