<svg width="100" height="24" viewBox="0 0 100 24" fill="none" xmlns="http://www.w3.org/2000/svg">
<path fill-rule="evenodd" clip-rule="evenodd" d="M22.8131 9.45427L30.4737 17.2578C30.5235 17.3085 30.5489 17.3703 30.5489 17.4414V17.5986C30.5489 17.7431 30.4306 17.861 30.2864 17.861H27.1418C27.0683 17.861 27.0051 17.8345 26.9538 17.7821L20.396 11.0666V17.5987C20.396 17.7432 20.2782 17.8612 20.1337 17.8612H17.618C17.4736 17.8612 17.3555 17.7433 17.3555 17.5987V1.85317C17.3555 1.70879 17.4734 1.59082 17.618 1.59082H20.1337C20.2782 1.59082 20.396 1.70879 20.396 1.85317V7.98681L26.344 1.67328C26.3957 1.61852 26.4601 1.59082 26.535 1.59082H29.6575C29.8019 1.59082 29.9198 1.70879 29.9198 1.85317V1.94318C29.9198 2.01355 29.8954 2.07417 29.8466 2.12463L22.813 9.45427H22.8131ZM33.1118 13.1893C33.4463 14.7301 34.8696 15.4494 36.4182 15.4494C37.3828 15.4494 38.7778 15.0909 39.4336 14.3481C39.4829 14.2924 39.5457 14.2624 39.6201 14.2595C39.6945 14.2565 39.7597 14.2815 39.8132 14.3332L41.318 15.793C41.4198 15.8916 41.4246 16.0536 41.3295 16.1583C40.1216 17.4849 38.1334 18.1308 36.3736 18.1308C32.6509 18.1308 30.1363 15.7596 30.1363 12.006C30.1363 8.44245 32.662 5.97097 36.2164 5.97097C40.4768 5.97097 42.4351 8.85568 42.0479 12.9514C42.0353 13.0866 41.9228 13.1893 41.787 13.1893H33.112H33.1118ZM46.1845 13.1893C46.519 14.7301 47.9422 15.4494 49.4911 15.4494C50.4555 15.4494 51.8505 15.0909 52.5063 14.3481C52.5556 14.2924 52.6184 14.2624 52.6928 14.2595C52.7672 14.2565 52.8324 14.2815 52.8858 14.3332L54.3906 15.793C54.4925 15.8916 54.4973 16.0536 54.4022 16.1583C53.1942 17.4849 51.2061 18.1308 49.4462 18.1308C45.7236 18.1308 43.2089 15.7596 43.2089 12.006C43.2089 8.44245 45.7347 5.97097 49.2889 5.97097C53.5497 5.97097 55.508 8.85568 55.1206 12.9514C55.108 13.0866 54.9951 13.1893 54.8594 13.1893H46.1846H46.1845ZM59.7412 7.61298C60.6664 6.58581 62.0573 6.03184 63.4407 6.03808C66.9305 6.05447 69.2949 8.62728 69.2949 12.0731C69.2949 15.5802 67.007 18.1083 63.4396 18.1083C62.1425 18.1083 60.7187 17.6883 59.7938 16.7433V22.7423C59.7938 22.8869 59.676 23.0047 59.5313 23.0047H57.2175C57.0731 23.0047 56.9551 22.8869 56.9551 22.7423V6.5252C56.9551 6.38069 57.0731 6.26259 57.2175 6.26259H59.3963C59.5341 6.26259 59.6479 6.3682 59.6581 6.50543L59.7412 7.61286V7.61298ZM33.1833 10.7102H39.2677C39.0229 9.20428 37.7977 8.56238 36.2834 8.56238C34.7985 8.56238 33.6042 9.3125 33.1833 10.7102ZM46.2559 10.7102H52.3403C52.0955 9.20428 50.8704 8.56238 49.3561 8.56238C47.8712 8.56238 46.6769 9.3125 46.2559 10.7102ZM63.2149 15.3371C65.1163 15.3371 66.4567 13.97 66.4567 12.0731C66.4567 10.1221 65.1741 8.80912 63.2149 8.80912C61.2934 8.80912 59.9959 10.172 59.9959 12.0731C59.9959 13.9204 61.3535 15.3371 63.2149 15.3371Z" fill="#F58726"/>
<path fill-rule="evenodd" clip-rule="evenodd" d="M82.2628 1.63623H84.756C84.9005 1.63623 85.0185 1.75407 85.0185 1.89871V11.0853C85.0185 15.4417 82.2618 18.2878 77.8971 18.1537C73.7737 18.0265 71.1514 15.2285 71.1514 11.0853V1.89871C71.1514 1.7542 71.2696 1.63623 71.414 1.63623H73.9072C74.0517 1.63623 74.1695 1.75407 74.1695 1.89871V11.0853C74.1695 13.4955 75.4433 15.2012 77.9172 15.3157C80.551 15.4377 82.0005 13.6287 82.0005 11.0853V1.89871C82.0005 1.7542 82.1185 1.63623 82.2628 1.63623ZM90.4468 7.61326C91.3716 6.58609 92.7624 6.03212 94.1461 6.03836C97.6359 6.05475 100 8.62756 100 12.0734C100 15.5805 97.7122 18.1086 94.1451 18.1086C92.848 18.1086 91.4239 17.6886 90.4989 16.7436V22.7426C90.4989 22.8871 90.3811 23.005 90.2366 23.005H87.9233C87.7788 23.005 87.6608 22.8871 87.6608 22.7426V6.52548C87.6608 6.38097 87.7786 6.26286 87.9233 6.26286H90.1021C90.2398 6.26286 90.3535 6.36848 90.3635 6.50571L90.4469 7.61313L90.4468 7.61326ZM93.9201 15.3374C95.8218 15.3374 97.1618 13.9702 97.1618 12.0734C97.1618 10.1223 95.8791 8.8094 93.9201 8.8094C91.9985 8.8094 90.7015 10.1723 90.7015 12.0734C90.7015 13.9207 92.0586 15.3374 93.9201 15.3374Z" fill="#F58726"/>
<path fill-rule="evenodd" clip-rule="evenodd" d="M0.451652 13.4996L1.29812 12.6729L3.45084 14.7754C4.05292 15.3634 5.03809 15.3634 5.64008 14.7754L7.79288 12.6729L8.63935 13.4996C9.24143 14.0876 9.24143 15.0498 8.63935 15.6377L5.64008 18.5668C5.038 19.1548 4.05291 19.1548 3.45093 18.5668L0.451652 15.6377C-0.150427 15.0499 -0.150427 14.0876 0.451652 13.4996ZM0.45156 3.36969L3.45093 0.440448C4.05291 -0.147467 5.03799 -0.147467 5.63998 0.440448L8.63935 3.36969C9.24143 3.9577 9.24143 4.91966 8.63935 5.50758L5.63998 8.43682C5.03799 9.02483 4.05291 9.02483 3.45093 8.43682L0.45156 5.50758C-0.15052 4.91957 -0.15052 3.95761 0.45156 3.36969ZM0.451652 8.44115L1.30482 7.60784L3.45084 9.70361C4.05292 10.2917 5.03809 10.2917 5.64008 9.70361L7.7861 7.60784L8.63935 8.44115C9.24143 9.02906 9.24143 9.9912 8.63935 10.5791L5.64008 13.5083C5.038 14.0963 4.05291 14.0963 3.45093 13.5083L0.451652 10.5791C-0.150427 9.99112 -0.150427 9.02906 0.451652 8.44115Z" fill="#F58726"/>
</svg>